<svg width="174" height="69" viewBox="0 0 174 69" fill="none" xmlns="http://www.w3.org/2000/svg">
<path opacity="0.2" d="M48.0007 34.4558V32.1017H46.7349V34.4558H44.3808V35.7216H46.7349V38.0757H48.0007V35.7216H50.3548V34.4558H48.0007ZM57.1442 34.8107L58.2444 31.7113H58.268L59.3327 34.8107H57.1442ZM57.3216 29.6293L54.1276 38.0757H55.9967L56.6592 36.1948H59.8177L60.4565 38.0757H62.3847L59.2262 29.6293H57.3216ZM67.2772 35C67.2772 35.2523 67.2535 35.4968 67.2062 35.7334C67.1589 35.97 67.08 36.1829 66.9696 36.3722C66.8592 36.5536 66.7093 36.6995 66.5201 36.8099C66.3387 36.9203 66.11 36.9755 65.8339 36.9755C65.5737 36.9755 65.3489 36.9203 65.1596 36.8099C64.9783 36.6916 64.8245 36.5418 64.6983 36.3604C64.58 36.1711 64.4932 35.9582 64.438 35.7216C64.3828 35.485 64.3552 35.2484 64.3552 35.0118C64.3552 34.7594 64.3789 34.5189 64.4262 34.2902C64.4814 34.0536 64.5642 33.8446 64.6746 33.6632C64.7929 33.4818 64.9467 33.3359 65.136 33.2255C65.3253 33.1151 65.5579 33.0599 65.8339 33.0599C66.11 33.0599 66.3387 33.1151 66.5201 33.2255C66.7014 33.3359 66.8473 33.4818 66.9578 33.6632C67.0761 33.8367 67.1589 34.0418 67.2062 34.2784C67.2535 34.5071 67.2772 34.7476 67.2772 35ZM67.3008 37.2949V38.0757H68.8978V29.6293H67.218V32.705H67.1943C67.0051 32.4053 66.7448 32.1806 66.4136 32.0307C66.0902 31.873 65.7472 31.7941 65.3844 31.7941C64.9349 31.7941 64.5406 31.8848 64.2014 32.0662C63.8623 32.2397 63.5784 32.4724 63.3497 32.7642C63.1289 33.056 62.9593 33.3951 62.841 33.7815C62.7306 34.1601 62.6754 34.5544 62.6754 34.9645C62.6754 35.3903 62.7306 35.8004 62.841 36.1948C62.9593 36.5891 63.1289 36.94 63.3497 37.2476C63.5784 37.5473 63.8663 37.7878 64.2133 37.9692C64.5603 38.1427 64.9625 38.2295 65.4199 38.2295C65.8221 38.2295 66.1809 38.1585 66.4964 38.0165C66.8197 37.8667 67.08 37.6262 67.2772 37.2949H67.3008ZM74.509 35C74.509 35.2523 74.4853 35.4968 74.438 35.7334C74.3907 35.97 74.3118 36.1829 74.2014 36.3722C74.091 36.5536 73.9412 36.6995 73.7519 36.8099C73.5705 36.9203 73.3418 36.9755 73.0658 36.9755C72.8055 36.9755 72.5807 36.9203 72.3915 36.8099C72.2101 36.6916 72.0563 36.5418 71.9301 36.3604C71.8118 36.1711 71.7251 35.9582 71.6699 35.7216C71.6147 35.485 71.5871 35.2484 71.5871 35.0118C71.5871 34.7594 71.6107 34.5189 71.658 34.2902C71.7132 34.0536 71.796 33.8446 71.9065 33.6632C72.0247 33.4818 72.1785 33.3359 72.3678 33.2255C72.5571 33.1151 72.7897 33.0599 73.0658 33.0599C73.3418 33.0599 73.5705 33.1151 73.7519 33.2255C73.9333 33.3359 74.0792 33.4818 74.1896 33.6632C74.3079 33.8367 74.3907 34.0418 74.438 34.2784C74.4853 34.5071 74.509 34.7476 74.509 35ZM74.5326 37.2949V38.0757H76.1297V29.6293H74.4498V32.705H74.4262C74.2369 32.4053 73.9766 32.1806 73.6454 32.0307C73.3221 31.873 72.979 31.7941 72.6162 31.7941C72.1667 31.7941 71.7724 31.8848 71.4333 32.0662C71.0941 32.2397 70.8102 32.4724 70.5815 32.7642C70.3607 33.056 70.1911 33.3951 70.0728 33.7815C69.9624 34.1601 69.9072 34.5544 69.9072 34.9645C69.9072 35.3903 69.9624 35.8004 70.0728 36.1948C70.1911 36.5891 70.3607 36.94 70.5815 37.2476C70.8102 37.5473 71.0981 37.7878 71.4451 37.9692C71.7921 38.1427 72.1943 38.2295 72.6517 38.2295C73.0539 38.2295 73.4128 38.1585 73.7282 38.0165C74.0516 37.8667 74.3118 37.6262 74.509 37.2949H74.5326ZM86.5001 32.4684H88.2983C88.2431 31.9795 88.109 31.5457 87.896 31.1671C87.6831 30.7886 87.411 30.4731 87.0798 30.2208C86.7565 29.9605 86.3858 29.7634 85.9678 29.6293C85.5577 29.4952 85.12 29.4282 84.6547 29.4282C84.008 29.4282 83.4244 29.5425 82.9039 29.7712C82.3913 29.9999 81.9575 30.3154 81.6026 30.7176C81.2478 31.1198 80.9757 31.593 80.7864 32.1372C80.5971 32.6735 80.5025 33.2571 80.5025 33.888C80.5025 34.5031 80.5971 35.0788 80.7864 35.6151C80.9757 36.1435 81.2478 36.6049 81.6026 36.9992C81.9575 37.3935 82.3913 37.705 82.9039 37.9337C83.4244 38.1546 84.008 38.265 84.6547 38.265C85.1752 38.265 85.6523 38.1861 86.0861 38.0284C86.5199 37.8706 86.8984 37.6419 87.2218 37.3422C87.5451 37.0426 87.8054 36.6798 88.0025 36.2539C88.1997 35.828 88.3219 35.3509 88.3692 34.8225H86.5711C86.5001 35.3903 86.303 35.8478 85.9796 36.1948C85.6642 36.5418 85.2225 36.7153 84.6547 36.7153C84.2367 36.7153 83.8818 36.6364 83.59 36.4787C83.2982 36.3131 83.0616 36.0962 82.8803 35.828C82.6989 35.5599 82.5648 35.2602 82.478 34.929C82.3992 34.5899 82.3597 34.2429 82.3597 33.888C82.3597 33.5173 82.3992 33.1585 82.478 32.8115C82.5648 32.4645 82.6989 32.1569 82.8803 31.8888C83.0616 31.6127 83.2982 31.3959 83.59 31.2381C83.8818 31.0725 84.2367 30.9897 84.6547 30.9897C84.8834 30.9897 85.1003 31.0291 85.3053 31.108C85.5183 31.179 85.7076 31.2815 85.8732 31.4156C86.0388 31.5496 86.1768 31.7074 86.2872 31.8888C86.3976 32.0623 86.4686 32.2555 86.5001 32.4684ZM95.1975 38.0757V31.9597H93.5176V35.1656C93.5176 35.7886 93.4151 36.2381 93.2101 36.5142C93.005 36.7823 92.6738 36.9164 92.2164 36.9164C91.8142 36.9164 91.5342 36.7941 91.3765 36.5497C91.2187 36.2973 91.1399 35.9187 91.1399 35.414V31.9597H89.4601V35.7216C89.4601 36.1001 89.4916 36.4471 89.5547 36.7626C89.6257 37.0702 89.744 37.3344 89.9096 37.5552C90.0752 37.7681 90.3 37.9337 90.5839 38.052C90.8757 38.1703 91.2463 38.2295 91.6959 38.2295C92.0508 38.2295 92.3978 38.1506 92.7369 37.9929C93.076 37.8352 93.352 37.5788 93.565 37.224H93.6005V38.0757H95.1975ZM96.4724 31.9597V38.0757H98.1522V35.3194C98.1522 35.0433 98.1798 34.787 98.235 34.5504C98.2902 34.3138 98.3809 34.1088 98.5071 33.9353C98.6412 33.7539 98.8147 33.612 99.0276 33.5094C99.2405 33.4069 99.5008 33.3556 99.8084 33.3556C99.9109 33.3556 100.017 33.3635 100.128 33.3793C100.238 33.3872 100.333 33.399 100.412 33.4148V31.8533C100.278 31.8138 100.155 31.7941 100.045 31.7941C99.832 31.7941 99.627 31.8257 99.4298 31.8888C99.2327 31.9519 99.0473 32.0425 98.8738 32.1608C98.7003 32.2713 98.5465 32.4093 98.4125 32.5749C98.2784 32.7326 98.1719 32.9061 98.0931 33.0954H98.0694V31.9597H96.4724ZM101.07 31.9597V38.0757H102.75V35.3194C102.75 35.0433 102.778 34.787 102.833 34.5504C102.888 34.3138 102.979 34.1088 103.105 33.9353C103.239 33.7539 103.413 33.612 103.625 33.5094C103.838 33.4069 104.099 33.3556 104.406 33.3556C104.509 33.3556 104.615 33.3635 104.726 33.3793C104.836 33.3872 104.931 33.399 105.01 33.4148V31.8533C104.875 31.8138 104.753 31.7941 104.643 31.7941C104.43 31.7941 104.225 31.8257 104.028 31.8888C103.831 31.9519 103.645 32.0425 103.472 32.1608C103.298 32.2713 103.144 32.4093 103.01 32.5749C102.876 32.7326 102.77 32.9061 102.691 33.0954H102.667V31.9597H101.07ZM109.577 34.3612H106.844C106.852 34.2429 106.876 34.1088 106.915 33.959C106.963 33.8091 107.037 33.6672 107.14 33.5331C107.25 33.399 107.392 33.2886 107.566 33.2019C107.747 33.1072 107.972 33.0599 108.24 33.0599C108.65 33.0599 108.954 33.1703 109.151 33.3911C109.356 33.612 109.498 33.9353 109.577 34.3612ZM106.844 35.4258H111.257C111.288 34.9527 111.249 34.4992 111.138 34.0654C111.028 33.6317 110.847 33.2452 110.594 32.9061C110.35 32.567 110.034 32.2989 109.648 32.1017C109.261 31.8966 108.808 31.7941 108.287 31.7941C107.822 31.7941 107.396 31.8769 107.01 32.0425C106.631 32.2082 106.304 32.4369 106.028 32.7287C105.752 33.0126 105.539 33.3517 105.389 33.746C105.239 34.1403 105.164 34.5662 105.164 35.0236C105.164 35.4968 105.235 35.9306 105.377 36.3249C105.527 36.7192 105.736 37.0583 106.004 37.3422C106.272 37.6262 106.6 37.847 106.986 38.0047C107.373 38.1546 107.806 38.2295 108.287 38.2295C108.981 38.2295 109.573 38.0717 110.062 37.7563C110.551 37.4408 110.914 36.9164 111.15 36.1829H109.672C109.616 36.3722 109.467 36.5536 109.222 36.7271C108.978 36.8927 108.686 36.9755 108.347 36.9755C107.873 36.9755 107.511 36.8533 107.258 36.6088C107.006 36.3643 106.868 35.97 106.844 35.4258ZM112.253 31.9597V38.0757H113.933V34.8698C113.933 34.2468 114.035 33.8012 114.24 33.5331C114.445 33.2571 114.777 33.119 115.234 33.119C115.636 33.119 115.916 33.2452 116.074 33.4976C116.232 33.7421 116.311 34.1167 116.311 34.6214V38.0757H117.99V34.3138C117.99 33.9353 117.955 33.5922 117.884 33.2847C117.821 32.9692 117.707 32.705 117.541 32.4921C117.375 32.2713 117.147 32.1017 116.855 31.9834C116.571 31.8572 116.204 31.7941 115.755 31.7941C115.4 31.7941 115.053 31.8769 114.714 32.0425C114.374 32.2003 114.098 32.4566 113.886 32.8115H113.85V31.9597H112.253ZM123.429 34.1127H125.074C125.05 33.7184 124.955 33.3793 124.79 33.0954C124.624 32.8036 124.407 32.5631 124.139 32.3738C123.879 32.1766 123.579 32.0307 123.24 31.9361C122.909 31.8414 122.562 31.7941 122.199 31.7941C121.702 31.7941 121.261 31.8769 120.874 32.0425C120.488 32.2082 120.16 32.4408 119.892 32.7405C119.624 33.0323 119.419 33.3832 119.277 33.7933C119.143 34.1955 119.076 34.6332 119.076 35.1064C119.076 35.5639 119.151 35.9858 119.301 36.3722C119.451 36.7508 119.66 37.0781 119.928 37.3541C120.196 37.6301 120.519 37.847 120.898 38.0047C121.284 38.1546 121.706 38.2295 122.164 38.2295C122.976 38.2295 123.642 38.0165 124.163 37.5907C124.683 37.1648 124.999 36.5457 125.109 35.7334H123.489C123.433 36.112 123.295 36.4156 123.075 36.6443C122.862 36.8651 122.554 36.9755 122.152 36.9755C121.892 36.9755 121.671 36.9164 121.489 36.7981C121.308 36.6798 121.162 36.5299 121.052 36.3486C120.949 36.1593 120.874 35.9503 120.827 35.7216C120.78 35.4929 120.756 35.2681 120.756 35.0473C120.756 34.8186 120.78 34.5899 120.827 34.3612C120.874 34.1246 120.953 33.9116 121.063 33.7224C121.182 33.5252 121.332 33.3675 121.513 33.2492C121.694 33.123 121.919 33.0599 122.187 33.0599C122.905 33.0599 123.319 33.4108 123.429 34.1127ZM129.075 38.8328L131.63 31.9597H129.891L128.554 36.1475H128.531L127.147 31.9597H125.36L127.501 37.6971C127.549 37.8154 127.572 37.9416 127.572 38.0757C127.572 38.2571 127.517 38.4227 127.407 38.5725C127.304 38.7224 127.143 38.8091 126.922 38.8328C126.756 38.8407 126.591 38.8367 126.425 38.821C126.259 38.8052 126.098 38.7894 125.94 38.7736V40.1577C126.113 40.1735 126.283 40.1853 126.449 40.1932C126.622 40.209 126.796 40.2169 126.969 40.2169C127.545 40.2169 127.994 40.1104 128.318 39.8975C128.641 39.6845 128.893 39.3296 129.075 38.8328Z" fill="#4C4C66"/>
<rect x="0.972017" y="1.14134" width="171.986" height="66.4283" rx="8.64478" stroke="#E2E2E8" stroke-width="0.909977" stroke-dasharray="3.64 3.64"/>
</svg>
