<svg width="174" height="69" viewBox="0 0 174 69" fill="none" xmlns="http://www.w3.org/2000/svg">
<rect x="0.231567" y="0.686352" width="172.896" height="67.3383" rx="9.09977" fill="#53B9EA"/>
<path d="M55.7403 51.0933C55.7403 51.0933 58.281 46.3834 61.2001 48.0052C64.1192 49.6269 64.4975 51.0933 67.0923 50.1203C69.687 49.1472 69.8494 40.9236 72.1199 42.5453C74.3903 44.167 79.9944 47.4105 84.8595 42.5453" stroke="url(#paint0_linear)" stroke-width="1.81995" stroke-linecap="round" stroke-linejoin="round"/>
<path opacity="0.5" d="M130.388 23.4251V21.6015H131.993C132.146 21.6015 132.291 21.616 132.43 21.6451C132.575 21.667 132.703 21.7107 132.812 21.7762C132.921 21.8417 133.008 21.9327 133.074 22.0492C133.139 22.1656 133.172 22.3149 133.172 22.4969C133.172 22.8245 133.074 23.0611 132.877 23.2067C132.681 23.3523 132.43 23.4251 132.124 23.4251H130.388ZM128.673 20.2693V28.0659H132.451C132.801 28.0659 133.139 28.0223 133.467 27.9349C133.802 27.8475 134.097 27.7129 134.352 27.5309C134.614 27.3489 134.821 27.1159 134.974 26.832C135.127 26.5408 135.203 26.1987 135.203 25.8056C135.203 25.3178 135.083 24.9029 134.843 24.5607C134.61 24.2113 134.253 23.9674 133.773 23.8291C134.122 23.6616 134.384 23.4469 134.559 23.1848C134.741 22.9227 134.832 22.5952 134.832 22.202C134.832 21.8381 134.77 21.5323 134.646 21.2848C134.53 21.0373 134.362 20.8407 134.144 20.6951C133.926 20.5422 133.664 20.4331 133.358 20.3675C133.052 20.302 132.714 20.2693 132.342 20.2693H128.673ZM130.388 26.7337V24.5935H132.255C132.626 24.5935 132.925 24.6808 133.15 24.8555C133.376 25.023 133.489 25.3069 133.489 25.7073C133.489 25.9111 133.452 26.0785 133.38 26.2096C133.314 26.3406 133.223 26.4462 133.107 26.5263C132.99 26.5991 132.856 26.6537 132.703 26.6901C132.55 26.7192 132.39 26.7337 132.222 26.7337H130.388ZM138.087 21.7107V28.0659H139.802V21.7107H142.138V20.2693H135.75V21.7107H138.087ZM148.235 22.89H149.895C149.844 22.4386 149.72 22.0383 149.524 21.6888C149.327 21.3394 149.076 21.0482 148.77 20.8152C148.472 20.575 148.13 20.393 147.744 20.2693C147.365 20.1455 146.961 20.0836 146.532 20.0836C145.935 20.0836 145.396 20.1892 144.916 20.4003C144.442 20.6114 144.042 20.9026 143.714 21.2739C143.387 21.6451 143.136 22.0819 142.961 22.5842C142.786 23.0793 142.699 23.618 142.699 24.2004C142.699 24.7682 142.786 25.2996 142.961 25.7946C143.136 26.2824 143.387 26.7083 143.714 27.0722C144.042 27.4362 144.442 27.7238 144.916 27.9349C145.396 28.1387 145.935 28.2407 146.532 28.2407C147.012 28.2407 147.453 28.1679 147.853 28.0223C148.253 27.8767 148.603 27.6655 148.901 27.3889C149.2 27.1123 149.44 26.7774 149.622 26.3843C149.804 25.9912 149.917 25.5508 149.96 25.063H148.301C148.235 25.5872 148.053 26.0094 147.755 26.3297C147.464 26.65 147.056 26.8102 146.532 26.8102C146.146 26.8102 145.818 26.7374 145.549 26.5918C145.28 26.4389 145.061 26.2387 144.894 25.9912C144.726 25.7437 144.603 25.467 144.522 25.1613C144.45 24.8483 144.413 24.5279 144.413 24.2004C144.413 23.8582 144.45 23.527 144.522 23.2067C144.603 22.8863 144.726 22.6024 144.894 22.3549C145.061 22.1001 145.28 21.8999 145.549 21.7543C145.818 21.6015 146.146 21.525 146.532 21.525C146.743 21.525 146.943 21.5614 147.132 21.6342C147.329 21.6997 147.504 21.7944 147.656 21.9181C147.809 22.0419 147.937 22.1875 148.039 22.3549C148.141 22.5151 148.206 22.6934 148.235 22.89Z" fill="white"/>
<path d="M70.2435 18.4818C70.6148 18.4818 70.9757 18.4509 71.3264 18.389C71.677 18.3271 71.9916 18.224 72.27 18.0796C72.5588 17.9352 72.8011 17.7496 72.9971 17.5227C73.2033 17.2958 73.3374 17.0174 73.3993 16.6873H74.838V27.5161H72.9043V19.8741H70.2435V18.4818ZM79.0869 25.4277H81.2372V27.5161H79.0869V25.4277ZM84.8156 24.7779C84.8569 25.2214 85.0116 25.5824 85.2797 25.8608C85.5582 26.129 85.9294 26.263 86.3935 26.263C86.8679 26.263 87.2444 26.1393 87.5228 25.8918C87.8116 25.6339 88.0333 25.3194 88.188 24.9481C88.3427 24.5665 88.4458 24.1643 88.4974 23.7415C88.5593 23.3083 88.6057 22.9113 88.6366 22.5503L88.6057 22.5194C88.3685 22.9422 88.0436 23.2671 87.6311 23.494C87.2186 23.7105 86.7648 23.8188 86.2698 23.8188C85.7541 23.8188 85.2849 23.7312 84.862 23.5558C84.4495 23.3805 84.0937 23.1382 83.7946 22.8288C83.4955 22.5091 83.2635 22.1275 83.0985 21.684C82.9335 21.2302 82.851 20.7249 82.851 20.168C82.851 19.642 82.9335 19.1573 83.0985 18.7139C83.2635 18.2601 83.5059 17.8682 83.8256 17.5382C84.1453 17.1978 84.5372 16.9348 85.0013 16.7492C85.4653 16.5636 85.9913 16.4708 86.5792 16.4708C87.3423 16.4708 87.9714 16.6203 88.4664 16.9194C88.9615 17.2081 89.3482 17.6104 89.6267 18.126C89.9154 18.6313 90.1165 19.2295 90.23 19.9205C90.3434 20.6115 90.4001 21.3488 90.4001 22.1326C90.4001 22.7824 90.328 23.4372 90.1836 24.0973C90.0495 24.7573 89.8226 25.3606 89.5029 25.9072C89.1832 26.4435 88.7604 26.8818 88.2344 27.2221C87.7188 27.5625 87.0793 27.7326 86.3162 27.7326C85.883 27.7326 85.4757 27.6604 85.0941 27.5161C84.7125 27.3717 84.3722 27.1706 84.0731 26.9127C83.7843 26.6549 83.5471 26.3455 83.3615 25.9846C83.1758 25.6236 83.0727 25.2214 83.0521 24.7779H84.8156ZM86.5018 17.9404C86.1821 17.9404 85.9037 18.0023 85.6665 18.126C85.4293 18.2395 85.2333 18.3993 85.0786 18.6056C84.9239 18.8118 84.8053 19.049 84.7228 19.3172C84.6506 19.5853 84.6145 19.8638 84.6145 20.1525C84.6145 20.4516 84.6506 20.7404 84.7228 21.0188C84.8053 21.287 84.9239 21.5242 85.0786 21.7304C85.2333 21.9367 85.4293 22.1069 85.6665 22.2409C85.9037 22.3647 86.1821 22.4266 86.5018 22.4266C86.8318 22.4266 87.1206 22.3647 87.3681 22.2409C87.6156 22.1172 87.8167 21.9522 87.9714 21.7459C88.1364 21.5293 88.2602 21.287 88.3427 21.0188C88.4252 20.7404 88.4664 20.4516 88.4664 20.1525C88.4664 19.8638 88.4252 19.5853 88.3427 19.3172C88.2602 19.049 88.1364 18.817 87.9714 18.621C87.8167 18.4148 87.6156 18.2498 87.3681 18.126C87.1206 18.0023 86.8318 17.9404 86.5018 17.9404ZM97.0314 19.4255C96.9902 18.982 96.8303 18.6262 96.5519 18.3581C96.2837 18.0796 95.9176 17.9404 95.4535 17.9404C95.1338 17.9404 94.8554 18.0023 94.6182 18.126C94.3913 18.2395 94.1953 18.3941 94.0303 18.5901C93.8756 18.786 93.7467 19.0129 93.6436 19.2708C93.5508 19.5183 93.4734 19.7813 93.4115 20.0597C93.3496 20.3382 93.3032 20.6166 93.2723 20.8951C93.2517 21.1632 93.231 21.4159 93.2104 21.6531L93.2414 21.684C93.4786 21.2509 93.8034 20.9312 94.2159 20.7249C94.6388 20.5083 95.0926 20.4 95.5773 20.4C96.1136 20.4 96.5931 20.4929 97.0159 20.6785C97.4388 20.8641 97.7946 21.122 98.0833 21.452C98.3824 21.7717 98.6093 22.1533 98.764 22.5967C98.9187 23.0402 98.9961 23.5197 98.9961 24.0354C98.9961 24.5614 98.9084 25.0512 98.7331 25.505C98.5681 25.9485 98.3257 26.3404 98.006 26.6807C97.6863 27.0107 97.3047 27.2685 96.8612 27.4542C96.4178 27.6398 95.9279 27.7326 95.3916 27.7326C94.5975 27.7326 93.9426 27.5883 93.427 27.2995C92.9217 27.0004 92.5194 26.5982 92.2204 26.0929C91.9316 25.5772 91.7305 24.979 91.6171 24.2984C91.5036 23.6074 91.4469 22.8649 91.4469 22.0708C91.4469 21.421 91.5139 20.7662 91.648 20.1061C91.7924 19.4461 92.0244 18.8479 92.3441 18.3116C92.6638 17.7651 93.0815 17.3216 93.5972 16.9813C94.1231 16.6409 94.7677 16.4708 95.5309 16.4708C95.964 16.4708 96.3714 16.543 96.753 16.6873C97.1345 16.8317 97.4697 17.0328 97.7585 17.2907C98.0576 17.5485 98.2999 17.8579 98.4856 18.2188C98.6712 18.5798 98.7743 18.982 98.7949 19.4255H97.0314ZM95.3298 26.263C95.6495 26.263 95.9279 26.2011 96.1651 26.0774C96.4023 25.9433 96.5983 25.7732 96.753 25.5669C96.918 25.3606 97.0366 25.1234 97.1088 24.8553C97.1913 24.5768 97.2325 24.2932 97.2325 24.0045C97.2325 23.7157 97.1913 23.4372 97.1088 23.1691C97.0366 22.901 96.918 22.6689 96.753 22.473C96.5983 22.2667 96.4023 22.1017 96.1651 21.9779C95.9279 21.8542 95.6495 21.7923 95.3298 21.7923C95.0101 21.7923 94.7264 21.8542 94.4789 21.9779C94.2417 22.0914 94.0406 22.2512 93.8756 22.4575C93.7106 22.6534 93.5868 22.8855 93.5043 23.1536C93.4218 23.4218 93.3806 23.7054 93.3806 24.0045C93.3806 24.3035 93.4218 24.5871 93.5043 24.8553C93.5868 25.1234 93.7106 25.3658 93.8756 25.5824C94.0406 25.7886 94.2417 25.9536 94.4789 26.0774C94.7264 26.2011 95.0101 26.263 95.3298 26.263ZM100.058 16.6873H107.468V18.1569C106.901 18.7964 106.385 19.4616 105.921 20.1525C105.457 20.8332 105.05 21.5603 104.699 22.3337C104.359 23.0969 104.08 23.9065 103.864 24.7625C103.647 25.6185 103.503 26.5363 103.431 27.5161H101.497C101.559 26.6601 101.703 25.8144 101.93 24.979C102.167 24.1437 102.466 23.3341 102.827 22.5503C103.199 21.7665 103.627 21.0137 104.111 20.2918C104.596 19.5698 105.117 18.8943 105.674 18.2652H100.058V16.6873ZM112.413 17.863C111.939 17.863 111.537 18.0074 111.207 18.2962C110.877 18.5746 110.712 18.982 110.712 19.5183C110.712 20.0339 110.871 20.431 111.191 20.7094C111.511 20.9776 111.918 21.1116 112.413 21.1116C112.908 21.1116 113.316 20.9776 113.635 20.7094C113.955 20.431 114.115 20.0339 114.115 19.5183C114.115 18.982 113.95 18.5746 113.62 18.2962C113.29 18.0074 112.888 17.863 112.413 17.863ZM112.413 27.7326C111.867 27.7326 111.356 27.6553 110.882 27.5006C110.418 27.3459 110.015 27.1242 109.675 26.8354C109.335 26.5363 109.067 26.1754 108.871 25.7525C108.685 25.3297 108.592 24.8553 108.592 24.3293C108.592 23.6487 108.768 23.0763 109.118 22.6122C109.479 22.1481 109.964 21.8387 110.572 21.684V21.6531C110.077 21.4674 109.696 21.1838 109.428 20.8023C109.17 20.4104 109.041 19.9514 109.041 19.4255C109.041 18.4973 109.33 17.7754 109.907 17.2597C110.495 16.7337 111.33 16.4708 112.413 16.4708C113.496 16.4708 114.326 16.7337 114.904 17.2597C115.492 17.7754 115.786 18.4973 115.786 19.4255C115.786 19.9514 115.652 20.4104 115.383 20.8023C115.126 21.1838 114.749 21.4674 114.254 21.6531V21.684C114.863 21.8387 115.342 22.1481 115.693 22.6122C116.054 23.0763 116.234 23.6487 116.234 24.3293C116.234 24.8553 116.136 25.3297 115.94 25.7525C115.755 26.1754 115.492 26.5363 115.151 26.8354C114.811 27.1242 114.404 27.3459 113.929 27.5006C113.465 27.6553 112.96 27.7326 112.413 27.7326ZM112.413 26.3404C113.001 26.3404 113.491 26.165 113.883 25.8144C114.275 25.4638 114.471 24.9687 114.471 24.3293C114.471 23.7312 114.275 23.2671 113.883 22.9371C113.491 22.5967 113.001 22.4266 112.413 22.4266C111.825 22.4266 111.336 22.5967 110.944 22.9371C110.552 23.2671 110.356 23.7312 110.356 24.3293C110.356 24.9687 110.552 25.4638 110.944 25.8144C111.336 26.165 111.825 26.3404 112.413 26.3404Z" fill="white"/>
<path d="M117.322 47.8525V45.6604H116.641V47.8525H114.459V48.5332H116.641V50.7253H117.322V48.5332H119.504V47.8525H117.322ZM123.544 50.7253V43.6284H122.894C122.847 43.8954 122.76 44.1156 122.633 44.2891C122.506 44.4626 122.35 44.5994 122.163 44.6995C121.983 44.7996 121.779 44.8696 121.552 44.9097C121.325 44.943 121.092 44.9597 120.852 44.9597V45.6404H122.693V50.7253H123.544ZM125.983 46.1409H126.834C126.827 45.9273 126.847 45.7171 126.894 45.5103C126.947 45.2967 127.031 45.1065 127.144 44.9397C127.258 44.7729 127.401 44.6394 127.575 44.5393C127.755 44.4325 127.968 44.3792 128.215 44.3792C128.402 44.3792 128.579 44.4092 128.746 44.4693C128.913 44.5293 129.056 44.6161 129.176 44.7295C129.303 44.8429 129.403 44.9797 129.477 45.1399C129.55 45.2934 129.587 45.4669 129.587 45.6604C129.587 45.9073 129.547 46.1242 129.467 46.311C129.393 46.4979 129.28 46.6714 129.126 46.8316C128.979 46.9917 128.793 47.1519 128.566 47.312C128.339 47.4655 128.075 47.6357 127.775 47.8225C127.528 47.9693 127.291 48.1261 127.064 48.293C126.837 48.4598 126.634 48.6533 126.454 48.8735C126.273 49.0938 126.123 49.354 126.003 49.6543C125.89 49.9479 125.816 50.3049 125.783 50.7253H130.417V49.9746H126.774C126.814 49.7544 126.897 49.5609 127.024 49.394C127.158 49.2205 127.314 49.0604 127.495 48.9136C127.681 48.7668 127.885 48.63 128.105 48.5032C128.325 48.3697 128.546 48.2363 128.766 48.1028C128.986 47.9627 129.2 47.8158 129.406 47.6624C129.613 47.5089 129.797 47.3387 129.957 47.1519C130.117 46.9583 130.244 46.7415 130.337 46.5012C130.437 46.261 130.488 45.9841 130.488 45.6704C130.488 45.3368 130.427 45.0431 130.307 44.7896C130.194 44.536 130.037 44.3258 129.837 44.1589C129.637 43.9854 129.4 43.8553 129.126 43.7686C128.859 43.6751 128.572 43.6284 128.265 43.6284C127.892 43.6284 127.558 43.6918 127.264 43.8186C126.971 43.9454 126.724 44.1222 126.524 44.3491C126.33 44.5693 126.187 44.8329 126.093 45.1399C126 45.4469 125.963 45.7805 125.983 46.1409ZM131.936 49.6143V50.7253H132.526C132.533 50.8054 132.526 50.8922 132.506 50.9856C132.493 51.079 132.463 51.1691 132.416 51.2559C132.369 51.3493 132.306 51.4327 132.226 51.5061C132.152 51.5862 132.059 51.6462 131.946 51.6863V52.1868C132.333 52.0733 132.613 51.8798 132.786 51.6062C132.96 51.3326 133.047 51.0056 133.047 50.6252V49.6143H131.936ZM138.595 44.4993V43.7485H135.092L134.431 47.4321L135.162 47.4722C135.329 47.272 135.519 47.1118 135.732 46.9917C135.953 46.8649 136.203 46.8015 136.483 46.8015C136.723 46.8015 136.94 46.8416 137.134 46.9216C137.334 47.0017 137.504 47.1152 137.644 47.262C137.784 47.4021 137.891 47.5723 137.965 47.7725C138.045 47.966 138.085 48.1795 138.085 48.4131C138.085 48.6934 138.045 48.9403 137.965 49.1538C137.885 49.3607 137.774 49.5342 137.634 49.6743C137.501 49.8145 137.341 49.9212 137.154 49.9946C136.974 50.0614 136.784 50.0947 136.583 50.0947C136.37 50.0947 136.173 50.0647 135.993 50.0046C135.819 49.9379 135.666 49.8478 135.532 49.7344C135.406 49.6143 135.302 49.4775 135.222 49.324C135.149 49.1638 135.105 48.9937 135.092 48.8135H134.241C134.248 49.1338 134.311 49.4207 134.431 49.6743C134.551 49.9279 134.715 50.1414 134.922 50.3149C135.129 50.4818 135.365 50.6119 135.632 50.7053C135.906 50.7921 136.196 50.8354 136.503 50.8354C136.917 50.8354 137.277 50.7721 137.584 50.6453C137.898 50.5118 138.158 50.335 138.365 50.1147C138.572 49.8945 138.725 49.6443 138.825 49.364C138.932 49.0771 138.986 48.7835 138.986 48.4832C138.986 48.0761 138.926 47.7224 138.805 47.4221C138.685 47.1152 138.522 46.8616 138.315 46.6614C138.108 46.4545 137.865 46.301 137.584 46.2009C137.304 46.1008 137.007 46.0508 136.693 46.0508C136.453 46.0508 136.21 46.0942 135.963 46.1809C135.722 46.261 135.526 46.3878 135.372 46.5613L135.352 46.5413L135.732 44.4993H138.595ZM141.124 45.6404C141.124 45.4869 141.134 45.3268 141.154 45.1599C141.174 44.9864 141.214 44.8296 141.275 44.6895C141.341 44.5427 141.431 44.4225 141.545 44.3291C141.658 44.229 141.808 44.179 141.995 44.179C142.189 44.179 142.339 44.229 142.446 44.3291C142.559 44.4225 142.646 44.5427 142.706 44.6895C142.766 44.8296 142.803 44.9864 142.816 45.1599C142.836 45.3268 142.846 45.4836 142.846 45.6304C142.846 45.7839 142.836 45.9474 142.816 46.1209C142.796 46.2944 142.753 46.4545 142.686 46.6013C142.626 46.7415 142.539 46.8582 142.426 46.9517C142.312 47.0451 142.159 47.0918 141.965 47.0918C141.778 47.0918 141.628 47.0451 141.515 46.9517C141.408 46.8516 141.325 46.7315 141.265 46.5913C141.204 46.4445 141.164 46.2877 141.144 46.1209C141.131 45.9474 141.124 45.7872 141.124 45.6404ZM140.374 45.6604C140.374 45.934 140.4 46.1909 140.454 46.4312C140.514 46.6714 140.607 46.8816 140.734 47.0618C140.861 47.242 141.028 47.3854 141.234 47.4922C141.441 47.5923 141.695 47.6423 141.995 47.6423C142.289 47.6423 142.536 47.5856 142.736 47.4722C142.936 47.3587 143.1 47.2119 143.226 47.0317C143.36 46.8449 143.453 46.6314 143.507 46.3911C143.567 46.1442 143.597 45.8906 143.597 45.6304C143.597 45.3568 143.57 45.0999 143.517 44.8596C143.47 44.6127 143.383 44.3992 143.256 44.219C143.136 44.0388 142.973 43.8954 142.766 43.7886C142.566 43.6818 142.309 43.6284 141.995 43.6284C141.688 43.6284 141.431 43.6852 141.224 43.7986C141.018 43.9054 140.851 44.0522 140.724 44.239C140.597 44.4259 140.507 44.6428 140.454 44.8897C140.4 45.1299 140.374 45.3868 140.374 45.6604ZM146.069 48.8435C146.069 48.69 146.079 48.5299 146.099 48.363C146.119 48.1895 146.159 48.0327 146.219 47.8926C146.286 47.7458 146.376 47.6257 146.49 47.5322C146.603 47.4321 146.753 47.3821 146.94 47.3821C147.134 47.3821 147.284 47.4321 147.39 47.5322C147.504 47.6257 147.591 47.7458 147.651 47.8926C147.711 48.0327 147.747 48.1895 147.761 48.363C147.781 48.5299 147.791 48.6867 147.791 48.8335C147.791 48.987 147.781 49.1505 147.761 49.324C147.741 49.4975 147.697 49.6576 147.631 49.8044C147.571 49.9446 147.484 50.0614 147.37 50.1548C147.257 50.2482 147.104 50.2949 146.91 50.2949C146.723 50.2949 146.573 50.2482 146.46 50.1548C146.353 50.0547 146.269 49.9346 146.209 49.7944C146.149 49.6476 146.109 49.4908 146.089 49.324C146.076 49.1505 146.069 48.9903 146.069 48.8435ZM145.318 48.8635C145.318 49.1371 145.345 49.394 145.399 49.6343C145.459 49.8745 145.552 50.0847 145.679 50.2649C145.806 50.4384 145.972 50.5785 146.179 50.6853C146.386 50.7854 146.64 50.8354 146.94 50.8354C147.234 50.8354 147.481 50.7821 147.681 50.6753C147.881 50.5619 148.044 50.415 148.171 50.2349C148.305 50.048 148.398 49.8345 148.452 49.5942C148.512 49.3473 148.542 49.0938 148.542 48.8335C148.542 48.5599 148.515 48.303 148.462 48.0628C148.415 47.8158 148.328 47.6023 148.201 47.4221C148.081 47.242 147.918 47.0985 147.711 46.9917C147.511 46.8849 147.254 46.8316 146.94 46.8316C146.633 46.8316 146.376 46.8883 146.169 47.0017C145.962 47.1085 145.796 47.2553 145.669 47.4421C145.542 47.629 145.452 47.8459 145.399 48.0928C145.345 48.333 145.318 48.5899 145.318 48.8635ZM146.72 43.4983L141.335 50.9355H142.195L147.571 43.4983H146.72Z" fill="white"/>
<path d="M105.43 46.7367L104.603 47.564C104.299 47.8686 103.805 47.8686 103.5 47.564C103.196 47.2594 103.196 46.7656 103.5 46.461L104.327 45.6337L102.149 43.4553H107.609V48.9151L105.43 46.7367Z" fill="white"/>
<g filter="url(#filter0_d)">
<path fill-rule="evenodd" clip-rule="evenodd" d="M22.3299 30.2248L22.3436 33.035H26.3756C27.0917 33.035 27.6721 32.4527 27.6685 31.7367L27.6675 31.5232C27.664 30.8069 27.078 30.2248 26.3618 30.2248H22.8819H22.3299ZM28.18 37.3067L28.1789 37.0811C28.1751 36.2823 27.5223 35.6337 26.7236 35.6337H26.388H22.3561L22.3714 38.7541H26.7387C27.5374 38.7541 28.184 38.1044 28.18 37.3067ZM29.4599 34.1167C30.2622 34.856 30.771 35.9097 30.7767 37.0811L30.7779 37.3067C30.7887 39.5367 28.9825 41.3517 26.7515 41.3517H26.6528L26.6585 42.5453H24.0609L24.0551 41.3517H22.9904L22.9963 42.5453H20.3987L20.3928 41.3517H19.7864H18.4982L18.4855 38.7541H19.7738L19.7586 35.6337L19.7458 33.035L19.7321 30.2248H18.4439L18.4312 27.6262H20.3258L20.3188 26.1657H22.9164L22.9235 27.6262H23.9882L23.981 26.1657H26.5788L26.5858 27.6384C28.6252 27.7622 30.2551 29.4544 30.2652 31.5231L30.2662 31.7366C30.2705 32.6331 29.9673 33.457 29.4599 34.1167Z" fill="white"/>
</g>
<defs>
<filter id="filter0_d" x="11.1514" y="22.5258" width="26.9063" height="30.9392" filterUnits="userSpaceOnUse" color-interpolation-filters="sRGB">
<feFlood flood-opacity="0" result="BackgroundImageFix"/>
<feColorMatrix in="SourceAlpha" type="matrix" values="0 0 0 0 0 0 0 0 0 0 0 0 0 0 0 0 0 0 127 0"/>
<feOffset dy="3.63991"/>
<feGaussianBlur stdDeviation="3.63991"/>
<feColorMatrix type="matrix" values="0 0 0 0 0 0 0 0 0 0 0 0 0 0 0 0 0 0 0.0744452 0"/>
<feBlend mode="normal" in2="BackgroundImageFix" result="effect1_dropShadow"/>
<feBlend mode="normal" in="SourceGraphic" in2="effect1_dropShadow" result="shape"/>
</filter>
<linearGradient id="paint0_linear" x1="74.1516" y1="40.183" x2="68.2054" y2="55.3007" gradientUnits="userSpaceOnUse">
<stop stop-color="#AAFFF7"/>
<stop offset="1" stop-color="white"/>
</linearGradient>
</defs>
</svg>
