<svg width="174" height="74" viewBox="0 0 174 74" fill="none" xmlns="http://www.w3.org/2000/svg">
<path fill-rule="evenodd" clip-rule="evenodd" d="M27.1611 30.357L19.4362 33.6578L27.1611 37.9456L34.8829 33.6578L27.1611 30.357Z" fill="#010101" fill-opacity="0.6"/>
<path fill-rule="evenodd" clip-rule="evenodd" d="M19.4362 33.6578L27.1611 37.9456V21.6158L19.4362 33.6578Z" fill="#6F6C99"/>
<path fill-rule="evenodd" clip-rule="evenodd" d="M19.4362 35.0328L27.1611 45.2574V39.3207L19.4362 35.0328Z" fill="#6F6C99"/>
<path fill-rule="evenodd" clip-rule="evenodd" d="M27.161 21.6158V37.9456L34.8828 33.6577L27.161 21.6158Z" fill="#4C4C66"/>
<path fill-rule="evenodd" clip-rule="evenodd" d="M27.161 39.3206V45.2574L34.8889 35.0328L27.161 39.3206Z" fill="#4C4C66"/>
<g filter="url(#filter0_f)">
<ellipse cx="96.1555" cy="52.0237" rx="7.14227" ry="3.09709" transform="rotate(29 96.1555 52.0237)" fill="url(#paint0_linear)"/>
</g>
<path d="M95.8744 52.7028C95.8744 52.7028 93.3336 47.4411 90.4145 49.0629C87.4954 50.6846 84.7741 50.7074 80.3145 45.7902C75.8549 40.8731 72.5303 50.6554 67.6651 45.7902" stroke="url(#paint1_linear)" stroke-width="1.81995" stroke-linecap="round" stroke-linejoin="round"/>
<path opacity="0.3" d="M123.916 20.2693V28.066H129.835V26.6245H125.631V24.7136H129.409V23.3814H125.631V21.7107H129.748V20.2693H123.916ZM132.722 21.7107V28.066H134.437V21.7107H136.774V20.2693H130.386V21.7107H132.722ZM137.673 20.2693V28.066H139.387V24.7027H142.543V28.066H144.257V20.2693H142.543V23.2613H139.387V20.2693H137.673Z" fill="#4C4C66"/>
<path opacity="0.7" d="M64.7395 21.341H66.0544C66.0441 21.011 66.0751 20.6861 66.1472 20.3664C66.2298 20.0364 66.3587 19.7424 66.534 19.4846C66.7093 19.2268 66.931 19.0205 67.1992 18.8658C67.4776 18.7008 67.8077 18.6183 68.1892 18.6183C68.478 18.6183 68.7513 18.6647 69.0091 18.7575C69.2669 18.8504 69.4887 18.9844 69.6743 19.1598C69.8703 19.3351 70.025 19.5465 70.1384 19.794C70.2518 20.0312 70.3086 20.2993 70.3086 20.5984C70.3086 20.98 70.2467 21.3152 70.1229 21.604C70.0095 21.8927 69.8342 22.1609 69.597 22.4084C69.3701 22.6559 69.0813 22.9034 68.7307 23.1509C68.38 23.3881 67.9727 23.6511 67.5086 23.9399C67.127 24.1668 66.7609 24.4091 66.4102 24.6669C66.0596 24.9248 65.745 25.2238 65.4666 25.5642C65.1881 25.9045 64.9561 26.3067 64.7705 26.7708C64.5951 27.2246 64.4817 27.7763 64.4301 28.426H71.5925V27.2658H65.9616C66.0235 26.9255 66.1524 26.6264 66.3484 26.3686C66.5546 26.1005 66.797 25.8529 67.0754 25.626C67.3642 25.3992 67.6787 25.1877 68.0191 24.9918C68.3594 24.7855 68.6997 24.5793 69.0401 24.373C69.3804 24.1564 69.7104 23.9295 70.0301 23.6923C70.3498 23.4551 70.6334 23.1922 70.8809 22.9034C71.1285 22.6043 71.3244 22.2691 71.4688 21.8979C71.6235 21.5266 71.7008 21.0986 71.7008 20.6139C71.7008 20.0982 71.608 19.6445 71.4224 19.2526C71.2471 18.8607 71.0047 18.5358 70.6953 18.278C70.3859 18.0098 70.0198 17.8087 69.597 17.6747C69.1844 17.5303 68.741 17.4581 68.2666 17.4581C67.689 17.4581 67.1734 17.5561 66.7196 17.752C66.2658 17.948 65.8843 18.2213 65.5749 18.5719C65.2758 18.9122 65.0541 19.3196 64.9097 19.794C64.7653 20.2684 64.7086 20.7841 64.7395 21.341ZM76.0271 22.1609V23.2747C76.2746 23.2437 76.5376 23.2283 76.8161 23.2283C77.1461 23.2283 77.4503 23.2747 77.7288 23.3675C78.0175 23.45 78.2651 23.5841 78.4713 23.7697C78.6776 23.945 78.8426 24.1668 78.9664 24.4349C79.0901 24.6927 79.152 24.9918 79.152 25.3321C79.152 25.6621 79.085 25.9612 78.9509 26.2294C78.8271 26.4872 78.657 26.7089 78.4404 26.8946C78.2238 27.0699 77.9711 27.2091 77.6824 27.3122C77.3936 27.4051 77.0894 27.4515 76.7697 27.4515C76.0168 27.4515 75.4444 27.2297 75.0525 26.7863C74.6606 26.3325 74.4544 25.7498 74.4338 25.0382H73.1188C73.1085 25.6054 73.1859 26.1108 73.3509 26.5542C73.5262 26.9977 73.7737 27.3741 74.0934 27.6835C74.4131 27.9826 74.7999 28.2095 75.2536 28.3642C75.7074 28.5189 76.2128 28.5962 76.7697 28.5962C77.2853 28.5962 77.77 28.5292 78.2238 28.3951C78.6879 28.2507 79.0901 28.0393 79.4304 27.7609C79.7708 27.4824 80.0389 27.1369 80.2349 26.7244C80.4411 26.3016 80.5443 25.8168 80.5443 25.2702C80.5443 24.6102 80.3792 24.0378 80.0492 23.5531C79.7295 23.0684 79.2345 22.7539 78.5641 22.6095V22.5785C78.9973 22.3826 79.3582 22.0938 79.647 21.7122C79.9358 21.3307 80.0802 20.8924 80.0802 20.3973C80.0802 19.892 79.9925 19.4537 79.8172 19.0824C79.6522 18.7111 79.4201 18.4069 79.121 18.1697C78.822 17.9325 78.4662 17.7572 78.0536 17.6437C77.6514 17.52 77.2131 17.4581 76.7387 17.4581C76.1921 17.4581 75.7074 17.5458 75.2846 17.7211C74.8721 17.8964 74.5266 18.1388 74.2481 18.4482C73.9697 18.7575 73.7531 19.1288 73.5984 19.562C73.454 19.9951 73.3715 20.4747 73.3509 21.0006H74.6658C74.6658 20.6809 74.7071 20.3767 74.7896 20.0879C74.8721 19.7992 74.9958 19.5465 75.1608 19.3299C75.3362 19.1133 75.5527 18.9432 75.8106 18.8194C76.0787 18.6854 76.3881 18.6183 76.7387 18.6183C77.2956 18.6183 77.7597 18.7679 78.131 19.0669C78.5023 19.3557 78.6879 19.794 78.6879 20.3819C78.6879 20.6706 78.6312 20.9284 78.5177 21.1553C78.4043 21.3822 78.2496 21.573 78.0536 21.7277C77.868 21.8721 77.6463 21.9855 77.3885 22.068C77.1409 22.1402 76.878 22.1763 76.5995 22.1763H76.321C76.2695 22.1763 76.2179 22.1763 76.1664 22.1763C76.1251 22.1763 76.0787 22.1712 76.0271 22.1609ZM82.5346 26.7089V28.426H84.2518V26.7089H82.5346ZM86.2368 21.341H87.5517C87.5414 21.011 87.5724 20.6861 87.6446 20.3664C87.7271 20.0364 87.856 19.7424 88.0313 19.4846C88.2066 19.2268 88.4284 19.0205 88.6965 18.8658C88.9749 18.7008 89.305 18.6183 89.6865 18.6183C89.9753 18.6183 90.2486 18.6647 90.5064 18.7575C90.7643 18.8504 90.986 18.9844 91.1716 19.1598C91.3676 19.3351 91.5223 19.5465 91.6357 19.794C91.7492 20.0312 91.8059 20.2993 91.8059 20.5984C91.8059 20.98 91.744 21.3152 91.6202 21.604C91.5068 21.8927 91.3315 22.1609 91.0943 22.4084C90.8674 22.6559 90.5786 22.9034 90.228 23.1509C89.8773 23.3881 89.47 23.6511 89.0059 23.9399C88.6243 24.1668 88.2582 24.4091 87.9075 24.6669C87.5569 24.9248 87.2423 25.2238 86.9639 25.5642C86.6854 25.9045 86.4534 26.3067 86.2678 26.7708C86.0924 27.2246 85.979 27.7763 85.9274 28.426H93.0899V27.2658H87.4589C87.5208 26.9255 87.6497 26.6264 87.8457 26.3686C88.0519 26.1005 88.2943 25.8529 88.5727 25.626C88.8615 25.3992 89.176 25.1877 89.5164 24.9918C89.8567 24.7855 90.197 24.5793 90.5374 24.373C90.8777 24.1564 91.2077 23.9295 91.5274 23.6923C91.8471 23.4551 92.1307 23.1922 92.3783 22.9034C92.6258 22.6043 92.8217 22.2691 92.9661 21.8979C93.1208 21.5266 93.1981 21.0986 93.1981 20.6139C93.1981 20.0982 93.1053 19.6445 92.9197 19.2526C92.7444 18.8607 92.502 18.5358 92.1926 18.278C91.8832 18.0098 91.5171 17.8087 91.0943 17.6747C90.6818 17.5303 90.2383 17.4581 89.7639 17.4581C89.1864 17.4581 88.6707 17.5561 88.2169 17.752C87.7632 17.948 87.3816 18.2213 87.0722 18.5719C86.7731 18.9122 86.5514 19.3196 86.407 19.794C86.2626 20.2684 86.2059 20.7841 86.2368 21.341ZM97.5244 22.1609V23.2747C97.772 23.2437 98.0349 23.2283 98.3134 23.2283C98.6434 23.2283 98.9476 23.2747 99.2261 23.3675C99.5149 23.45 99.7624 23.5841 99.9686 23.7697C100.175 23.945 100.34 24.1668 100.464 24.4349C100.587 24.6927 100.649 24.9918 100.649 25.3321C100.649 25.6621 100.582 25.9612 100.448 26.2294C100.324 26.4872 100.154 26.7089 99.9377 26.8946C99.7211 27.0699 99.4685 27.2091 99.1797 27.3122C98.8909 27.4051 98.5867 27.4515 98.267 27.4515C97.5141 27.4515 96.9418 27.2297 96.5499 26.7863C96.158 26.3325 95.9517 25.7498 95.9311 25.0382H94.6162C94.6058 25.6054 94.6832 26.1108 94.8482 26.5542C95.0235 26.9977 95.271 27.3741 95.5907 27.6835C95.9104 27.9826 96.2972 28.2095 96.751 28.3642C97.2047 28.5189 97.7101 28.5962 98.267 28.5962C98.7826 28.5962 99.2673 28.5292 99.7211 28.3951C100.185 28.2507 100.587 28.0393 100.928 27.7609C101.268 27.4824 101.536 27.1369 101.732 26.7244C101.938 26.3016 102.042 25.8168 102.042 25.2702C102.042 24.6102 101.877 24.0378 101.547 23.5531C101.227 23.0684 100.732 22.7539 100.061 22.6095V22.5785C100.495 22.3826 100.856 22.0938 101.144 21.7122C101.433 21.3307 101.577 20.8924 101.577 20.3973C101.577 19.892 101.49 19.4537 101.314 19.0824C101.149 18.7111 100.917 18.4069 100.618 18.1697C100.319 17.9325 99.9635 17.7572 99.551 17.6437C99.1487 17.52 98.7104 17.4581 98.236 17.4581C97.6894 17.4581 97.2047 17.5458 96.7819 17.7211C96.3694 17.8964 96.0239 18.1388 95.7454 18.4482C95.467 18.7575 95.2504 19.1288 95.0957 19.562C94.9513 19.9951 94.8688 20.4747 94.8482 21.0006H96.1631C96.1631 20.6809 96.2044 20.3767 96.2869 20.0879C96.3694 19.7992 96.4931 19.5465 96.6581 19.3299C96.8335 19.1133 97.05 18.9432 97.3079 18.8194C97.576 18.6854 97.8854 18.6183 98.236 18.6183C98.7929 18.6183 99.257 18.7679 99.6283 19.0669C99.9996 19.3557 100.185 19.794 100.185 20.3819C100.185 20.6706 100.128 20.9284 100.015 21.1553C99.9016 21.3822 99.7469 21.573 99.551 21.7277C99.3653 21.8721 99.1436 21.9855 98.8858 22.068C98.6383 22.1402 98.3753 22.1763 98.0968 22.1763H97.8184C97.7668 22.1763 97.7152 22.1763 97.6637 22.1763C97.6224 22.1763 97.576 22.1712 97.5244 22.1609ZM107.992 24.6979H104.31L107.961 19.3299H107.992V24.6979ZM109.23 24.6979V17.4581H108.178L103.181 24.5896V25.8581H107.992V28.426H109.23V25.8581H110.715V24.6979H109.23Z" fill="#4C4C66"/>
<path d="M117.304 47.5422V48.343H120.197V47.5422H117.304ZM125.399 44.4993V43.7485H121.895L121.235 47.4321L121.965 47.4722C122.132 47.272 122.322 47.1118 122.536 46.9917C122.756 46.8649 123.006 46.8015 123.287 46.8015C123.527 46.8015 123.744 46.8416 123.937 46.9216C124.138 47.0017 124.308 47.1152 124.448 47.262C124.588 47.4021 124.695 47.5723 124.768 47.7725C124.848 47.966 124.888 48.1795 124.888 48.4131C124.888 48.6934 124.848 48.9403 124.768 49.1538C124.688 49.3607 124.578 49.5342 124.438 49.6743C124.304 49.8145 124.144 49.9212 123.957 49.9946C123.777 50.0614 123.587 50.0947 123.387 50.0947C123.173 50.0947 122.976 50.0647 122.796 50.0046C122.623 49.9379 122.469 49.8478 122.336 49.7344C122.209 49.6143 122.106 49.4775 122.025 49.324C121.952 49.1638 121.909 48.9937 121.895 48.8135H121.045C121.051 49.1338 121.115 49.4207 121.235 49.6743C121.355 49.9279 121.518 50.1414 121.725 50.3149C121.932 50.4818 122.169 50.6119 122.436 50.7053C122.709 50.7921 123 50.8354 123.307 50.8354C123.72 50.8354 124.081 50.7721 124.388 50.6453C124.701 50.5118 124.962 50.335 125.169 50.1147C125.375 49.8945 125.529 49.6443 125.629 49.364C125.736 49.0771 125.789 48.7835 125.789 48.4832C125.789 48.0761 125.729 47.7224 125.609 47.4221C125.489 47.1152 125.325 46.8616 125.118 46.6614C124.912 46.4545 124.668 46.301 124.388 46.2009C124.108 46.1008 123.811 46.0508 123.497 46.0508C123.257 46.0508 123.013 46.0942 122.766 46.1809C122.526 46.261 122.329 46.3878 122.176 46.5613L122.156 46.5413L122.536 44.4993H125.399ZM127.087 49.6143V50.7253H128.198V49.6143H127.087ZM129.483 46.1409H130.333C130.327 45.9273 130.347 45.7171 130.393 45.5103C130.447 45.2967 130.53 45.1065 130.644 44.9397C130.757 44.7729 130.901 44.6394 131.074 44.5393C131.254 44.4325 131.468 44.3792 131.715 44.3792C131.902 44.3792 132.078 44.4092 132.245 44.4692C132.412 44.5293 132.556 44.6161 132.676 44.7295C132.802 44.8429 132.903 44.9797 132.976 45.1399C133.049 45.2934 133.086 45.4669 133.086 45.6604C133.086 45.9073 133.046 46.1242 132.966 46.311C132.893 46.4979 132.779 46.6714 132.626 46.8315C132.479 46.9917 132.292 47.1519 132.065 47.312C131.838 47.4655 131.575 47.6357 131.274 47.8225C131.027 47.9693 130.791 48.1261 130.564 48.293C130.337 48.4598 130.133 48.6533 129.953 48.8735C129.773 49.0938 129.623 49.354 129.503 49.6543C129.389 49.9479 129.316 50.3049 129.282 50.7253H133.917V49.9746H130.273C130.313 49.7544 130.397 49.5609 130.524 49.394C130.657 49.2205 130.814 49.0604 130.994 48.9136C131.181 48.7668 131.384 48.63 131.605 48.5032C131.825 48.3697 132.045 48.2363 132.265 48.1028C132.486 47.9627 132.699 47.8158 132.906 47.6624C133.113 47.5089 133.296 47.3387 133.456 47.1519C133.617 46.9583 133.743 46.7415 133.837 46.5012C133.937 46.261 133.987 45.9841 133.987 45.6704C133.987 45.3368 133.927 45.0431 133.807 44.7896C133.693 44.536 133.537 44.3258 133.336 44.1589C133.136 43.9854 132.899 43.8553 132.626 43.7686C132.359 43.6751 132.072 43.6284 131.765 43.6284C131.391 43.6284 131.057 43.6918 130.764 43.8186C130.47 43.9454 130.223 44.1222 130.023 44.3491C129.83 44.5693 129.686 44.8329 129.593 45.1399C129.499 45.4469 129.463 45.7805 129.483 46.1409ZM136.786 46.6714V47.3921C136.946 47.3721 137.117 47.3621 137.297 47.3621C137.51 47.3621 137.707 47.3921 137.887 47.4522C138.074 47.5055 138.234 47.5923 138.368 47.7124C138.501 47.8259 138.608 47.9693 138.688 48.1428C138.768 48.3097 138.808 48.5032 138.808 48.7234C138.808 48.9369 138.765 49.1305 138.678 49.304C138.598 49.4708 138.488 49.6143 138.348 49.7344C138.208 49.8478 138.044 49.9379 137.857 50.0046C137.671 50.0647 137.474 50.0947 137.267 50.0947C136.78 50.0947 136.409 49.9513 136.156 49.6643C135.902 49.3707 135.769 48.9937 135.755 48.5332H134.905C134.898 48.9002 134.948 49.2272 135.055 49.5142C135.168 49.8011 135.328 50.0447 135.535 50.2449C135.742 50.4384 135.992 50.5852 136.286 50.6853C136.579 50.7854 136.906 50.8354 137.267 50.8354C137.6 50.8354 137.914 50.7921 138.208 50.7053C138.508 50.6119 138.768 50.4751 138.988 50.2949C139.209 50.1147 139.382 49.8912 139.509 49.6243C139.642 49.3507 139.709 49.037 139.709 48.6834C139.709 48.2563 139.602 47.8859 139.389 47.5723C139.182 47.2586 138.862 47.0551 138.428 46.9617V46.9417C138.708 46.8149 138.942 46.628 139.129 46.3811C139.315 46.1342 139.409 45.8506 139.409 45.5303C139.409 45.2033 139.352 44.9197 139.239 44.6795C139.132 44.4392 138.982 44.2424 138.788 44.0889C138.595 43.9354 138.365 43.822 138.098 43.7485C137.837 43.6685 137.554 43.6284 137.247 43.6284C136.893 43.6284 136.579 43.6852 136.306 43.7986C136.039 43.912 135.815 44.0689 135.635 44.2691C135.455 44.4692 135.315 44.7095 135.215 44.9898C135.121 45.27 135.068 45.5803 135.055 45.9207H135.905C135.905 45.7138 135.932 45.5169 135.986 45.3301C136.039 45.1432 136.119 44.9797 136.226 44.8396C136.339 44.6995 136.479 44.5894 136.646 44.5093C136.82 44.4225 137.02 44.3792 137.247 44.3792C137.607 44.3792 137.907 44.4759 138.148 44.6694C138.388 44.8563 138.508 45.1399 138.508 45.5203C138.508 45.7071 138.471 45.874 138.398 46.0208C138.324 46.1676 138.224 46.291 138.098 46.3911C137.977 46.4845 137.834 46.5579 137.667 46.6113C137.507 46.658 137.337 46.6814 137.157 46.6814H136.977C136.943 46.6814 136.91 46.6814 136.876 46.6814C136.85 46.6814 136.82 46.6781 136.786 46.6714ZM141.838 45.6404C141.838 45.4869 141.848 45.3268 141.868 45.1599C141.888 44.9864 141.928 44.8296 141.988 44.6895C142.055 44.5427 142.145 44.4225 142.258 44.3291C142.372 44.229 142.522 44.179 142.709 44.179C142.902 44.179 143.052 44.229 143.159 44.3291C143.273 44.4225 143.359 44.5427 143.419 44.6895C143.479 44.8296 143.516 44.9864 143.53 45.1599C143.55 45.3268 143.56 45.4836 143.56 45.6304C143.56 45.7839 143.55 45.9474 143.53 46.1209C143.51 46.2944 143.466 46.4545 143.399 46.6013C143.339 46.7415 143.253 46.8582 143.139 46.9517C143.026 47.0451 142.872 47.0918 142.679 47.0918C142.492 47.0918 142.342 47.0451 142.228 46.9517C142.122 46.8516 142.038 46.7315 141.978 46.5913C141.918 46.4445 141.878 46.2877 141.858 46.1209C141.845 45.9474 141.838 45.7872 141.838 45.6404ZM141.087 45.6604C141.087 45.934 141.114 46.1909 141.167 46.4312C141.227 46.6714 141.321 46.8816 141.448 47.0618C141.574 47.2419 141.741 47.3854 141.948 47.4922C142.155 47.5923 142.408 47.6423 142.709 47.6423C143.002 47.6423 143.249 47.5856 143.449 47.4722C143.65 47.3587 143.813 47.2119 143.94 47.0317C144.073 46.8449 144.167 46.6314 144.22 46.3911C144.28 46.1442 144.31 45.8906 144.31 45.6304C144.31 45.3568 144.284 45.0999 144.23 44.8596C144.184 44.6127 144.097 44.3992 143.97 44.219C143.85 44.0388 143.686 43.8954 143.479 43.7886C143.279 43.6818 143.022 43.6284 142.709 43.6284C142.402 43.6284 142.145 43.6852 141.938 43.7986C141.731 43.9054 141.564 44.0522 141.438 44.239C141.311 44.4259 141.221 44.6428 141.167 44.8897C141.114 45.1299 141.087 45.3868 141.087 45.6604ZM146.783 48.8435C146.783 48.69 146.793 48.5299 146.813 48.363C146.833 48.1895 146.873 48.0327 146.933 47.8926C147 47.7458 147.09 47.6257 147.203 47.5322C147.317 47.4321 147.467 47.3821 147.654 47.3821C147.847 47.3821 147.997 47.4321 148.104 47.5322C148.217 47.6257 148.304 47.7458 148.364 47.8926C148.424 48.0327 148.461 48.1895 148.474 48.363C148.494 48.5299 148.504 48.6867 148.504 48.8335C148.504 48.987 148.494 49.1505 148.474 49.324C148.454 49.4975 148.411 49.6576 148.344 49.8044C148.284 49.9446 148.197 50.0614 148.084 50.1548C147.971 50.2482 147.817 50.2949 147.624 50.2949C147.437 50.2949 147.287 50.2482 147.173 50.1548C147.066 50.0547 146.983 49.9346 146.923 49.7944C146.863 49.6476 146.823 49.4908 146.803 49.324C146.789 49.1505 146.783 48.9903 146.783 48.8435ZM146.032 48.8635C146.032 49.1371 146.059 49.394 146.112 49.6343C146.172 49.8745 146.266 50.0847 146.392 50.2649C146.519 50.4384 146.686 50.5785 146.893 50.6853C147.1 50.7854 147.353 50.8354 147.654 50.8354C147.947 50.8354 148.194 50.7821 148.394 50.6753C148.594 50.5618 148.758 50.415 148.885 50.2349C149.018 50.048 149.112 49.8345 149.165 49.5942C149.225 49.3473 149.255 49.0938 149.255 48.8335C149.255 48.5599 149.228 48.303 149.175 48.0627C149.128 47.8158 149.042 47.6023 148.915 47.4221C148.795 47.2419 148.631 47.0985 148.424 46.9917C148.224 46.8849 147.967 46.8315 147.654 46.8315C147.347 46.8315 147.09 46.8883 146.883 47.0017C146.676 47.1085 146.509 47.2553 146.382 47.4421C146.256 47.629 146.165 47.8459 146.112 48.0928C146.059 48.333 146.032 48.5899 146.032 48.8635ZM147.433 43.4983L142.048 50.9355H142.909L148.284 43.4983H147.433Z" fill="#E3507A"/>
<path d="M108.255 45.6337L107.428 44.8064C107.124 44.5018 106.63 44.5018 106.325 44.8064C106.02 45.111 106.02 45.6048 106.325 45.9094L107.152 46.7367L104.974 48.9151H110.434V43.4553L108.255 45.6337Z" fill="#E3507A"/>
<rect x="0.78171" y="1.14134" width="171.986" height="66.4283" rx="8.64478" stroke="#E2E2E8" stroke-width="0.909977"/>
<defs>
<filter id="filter0_f" x="72.5524" y="30.4503" width="47.2063" height="43.1469" filterUnits="userSpaceOnUse" color-interpolation-filters="sRGB">
<feFlood flood-opacity="0" result="BackgroundImageFix"/>
<feBlend mode="normal" in="SourceGraphic" in2="BackgroundImageFix" result="shape"/>
<feGaussianBlur stdDeviation="8.58849" result="effect1_foregroundBlur"/>
</filter>
<linearGradient id="paint0_linear" x1="96.8221" y1="56.8702" x2="99.6625" y2="51.2243" gradientUnits="userSpaceOnUse">
<stop stop-color="#FF62B8" stop-opacity="0.01"/>
<stop offset="1" stop-color="#FE33D1"/>
</linearGradient>
<linearGradient id="paint1_linear" x1="69.1529" y1="39.9351" x2="76.8219" y2="59.9611" gradientUnits="userSpaceOnUse">
<stop stop-color="#A330FF" stop-opacity="0.01"/>
<stop offset="1" stop-color="#F97298"/>
</linearGradient>
</defs>
</svg>
