<svg width="174" height="69" viewBox="0 0 174 69" fill="none" xmlns="http://www.w3.org/2000/svg">
<path d="M30.5585 34.947L33.1335 34.0063L33.774 31.5994L33.7521 31.5397L31.2174 32.4657L33.0437 25.589H27.8643L25.4759 34.5633L23.4818 35.2918L22.8229 37.7731L24.8155 37.0452L23.4078 42.3342H37.1923L38.0761 39.0425H29.4709L30.5585 34.947Z" fill="#6F6C99"/>
<g filter="url(#filter0_f)">
<ellipse cx="85.0416" cy="42.9251" rx="7.19949" ry="4.16812" transform="rotate(-11 85.0416 42.9251)" fill="url(#paint0_linear)"/>
</g>
<path d="M59.5702 51.0933C59.5702 51.0933 62.111 46.3834 65.0301 48.0052C67.9492 49.6269 68.3275 51.0933 70.9222 50.1203C73.517 49.1472 73.6794 40.9236 75.9498 42.5453C78.2202 44.167 83.8243 47.4105 88.6895 42.5453" stroke="url(#paint1_linear)" stroke-width="1.81995" stroke-linecap="round" stroke-linejoin="round"/>
<path opacity="0.3" d="M131.082 20.2693V28.066H136.596V26.6245H132.796V20.2693H131.082ZM138.277 21.7107V28.066H139.992V21.7107H142.329V20.2693H135.941V21.7107H138.277ZM148.425 22.89H150.085C150.034 22.4387 149.91 22.0383 149.714 21.6888C149.517 21.3394 149.266 21.0482 148.96 20.8153C148.662 20.575 148.32 20.393 147.934 20.2693C147.555 20.1455 147.151 20.0836 146.722 20.0836C146.125 20.0836 145.586 20.1892 145.106 20.4003C144.633 20.6114 144.232 20.9026 143.905 21.2739C143.577 21.6452 143.326 22.0819 143.151 22.5843C142.976 23.0793 142.889 23.618 142.889 24.2004C142.889 24.7682 142.976 25.2996 143.151 25.7947C143.326 26.2824 143.577 26.7083 143.905 27.0723C144.232 27.4362 144.633 27.7238 145.106 27.9349C145.586 28.1388 146.125 28.2407 146.722 28.2407C147.202 28.2407 147.643 28.1679 148.043 28.0223C148.444 27.8767 148.793 27.6656 149.091 27.3889C149.39 27.1123 149.63 26.7774 149.812 26.3843C149.994 25.9912 150.107 25.5508 150.151 25.063H148.491C148.425 25.5872 148.243 26.0094 147.945 26.3297C147.654 26.65 147.246 26.8102 146.722 26.8102C146.336 26.8102 146.008 26.7374 145.739 26.5918C145.47 26.4389 145.251 26.2387 145.084 25.9912C144.917 25.7437 144.793 25.4671 144.713 25.1613C144.64 24.8483 144.603 24.528 144.603 24.2004C144.603 23.8582 144.64 23.527 144.713 23.2067C144.793 22.8864 144.917 22.6025 145.084 22.3549C145.251 22.1001 145.47 21.8999 145.739 21.7544C146.008 21.6015 146.336 21.525 146.722 21.525C146.933 21.525 147.133 21.5614 147.322 21.6342C147.519 21.6998 147.694 21.7944 147.847 21.9181C148 22.0419 148.127 22.1875 148.229 22.3549C148.331 22.5151 148.396 22.6934 148.425 22.89Z" fill="#4C4C66"/>
<path opacity="0.7" d="M64.3903 22.1609V23.2747C64.6378 23.2437 64.9008 23.2283 65.1792 23.2283C65.5092 23.2283 65.8135 23.2747 66.0919 23.3675C66.3807 23.45 66.6282 23.5841 66.8345 23.7697C67.0407 23.945 67.2057 24.1667 67.3295 24.4349C67.4533 24.6927 67.5151 24.9918 67.5151 25.3321C67.5151 25.6621 67.4481 25.9612 67.314 26.2294C67.1903 26.4872 67.0201 26.7089 66.8035 26.8945C66.587 27.0699 66.3343 27.2091 66.0455 27.3122C65.7568 27.405 65.4525 27.4515 65.1328 27.4515C64.38 27.4515 63.8076 27.2297 63.4157 26.7863C63.0238 26.3325 62.8175 25.7498 62.7969 25.0382H61.482C61.4717 25.6054 61.549 26.1108 61.714 26.5542C61.8894 26.9977 62.1369 27.3741 62.4566 27.6835C62.7763 27.9826 63.163 28.2095 63.6168 28.3642C64.0706 28.5189 64.5759 28.5962 65.1328 28.5962C65.6485 28.5962 66.1332 28.5292 66.587 28.3951C67.051 28.2507 67.4533 28.0393 67.7936 27.7608C68.1339 27.4824 68.4021 27.1369 68.598 26.7244C68.8043 26.3015 68.9074 25.8168 68.9074 25.2702C68.9074 24.6102 68.7424 24.0378 68.4124 23.5531C68.0927 23.0684 67.5976 22.7539 66.9273 22.6095V22.5785C67.3604 22.3826 67.7214 22.0938 68.0102 21.7122C68.2989 21.3306 68.4433 20.8923 68.4433 20.3973C68.4433 19.892 68.3557 19.4537 68.1803 19.0824C68.0153 18.7111 67.7833 18.4069 67.4842 18.1697C67.1851 17.9325 66.8293 17.7572 66.4168 17.6437C66.0146 17.52 65.5763 17.4581 65.1019 17.4581C64.5553 17.4581 64.0706 17.5458 63.6477 17.7211C63.2352 17.8964 62.8897 18.1388 62.6113 18.4481C62.3328 18.7575 62.1162 19.1288 61.9615 19.562C61.8172 19.9951 61.7347 20.4747 61.714 21.0006H63.029C63.029 20.6809 63.0702 20.3767 63.1527 20.0879C63.2352 19.7992 63.359 19.5465 63.524 19.3299C63.6993 19.1133 63.9159 18.9432 64.1737 18.8194C64.4418 18.6853 64.7512 18.6183 65.1019 18.6183C65.6588 18.6183 66.1229 18.7679 66.4941 19.0669C66.8654 19.3557 67.051 19.794 67.051 20.3818C67.051 20.6706 66.9943 20.9284 66.8809 21.1553C66.7674 21.3822 66.6127 21.573 66.4168 21.7277C66.2312 21.8721 66.0094 21.9855 65.7516 22.068C65.5041 22.1402 65.2411 22.1763 64.9627 22.1763H64.6842C64.6326 22.1763 64.5811 22.1763 64.5295 22.1763C64.4883 22.1763 64.4418 22.1712 64.3903 22.1609ZM72.0116 20.3045C72.0116 20.026 72.0632 19.7837 72.1663 19.5774C72.2694 19.3712 72.4035 19.1958 72.5685 19.0515C72.7438 18.9071 72.9501 18.7988 73.1873 18.7266C73.4245 18.6544 73.672 18.6183 73.9298 18.6183C74.4661 18.6183 74.9044 18.7627 75.2447 19.0515C75.5954 19.3299 75.7707 19.7476 75.7707 20.3045C75.7707 20.8614 75.6005 21.2946 75.2602 21.6039C74.9199 21.9133 74.4867 22.068 73.9608 22.068C73.6926 22.068 73.44 22.0319 73.2028 21.9597C72.9656 21.8876 72.7593 21.7793 72.584 21.6349C72.4086 21.4905 72.2694 21.31 72.1663 21.0934C72.0632 20.8666 72.0116 20.6036 72.0116 20.3045ZM70.6193 20.2581C70.6193 20.7531 70.7586 21.212 71.037 21.6349C71.3155 22.0474 71.6867 22.3465 72.1508 22.5321C71.532 22.7487 71.0576 23.0993 70.7276 23.5841C70.3976 24.0585 70.2326 24.6205 70.2326 25.2702C70.2326 25.8271 70.3254 26.317 70.511 26.7399C70.707 27.1524 70.97 27.4979 71.3 27.7763C71.6403 28.0548 72.0374 28.261 72.4912 28.3951C72.9449 28.5292 73.4348 28.5962 73.9608 28.5962C74.4661 28.5962 74.9405 28.524 75.384 28.3796C75.8274 28.2352 76.209 28.0238 76.5287 27.7454C76.8587 27.4566 77.1166 27.106 77.3022 26.6934C77.4981 26.2809 77.5961 25.8065 77.5961 25.2702C77.5961 24.5896 77.4363 24.0172 77.1166 23.5531C76.7969 23.0787 76.307 22.7384 75.647 22.5321C76.111 22.3259 76.4772 22.0216 76.7453 21.6194C77.0237 21.2069 77.163 20.7531 77.163 20.2581C77.163 19.9074 77.1011 19.5671 76.9773 19.2371C76.8536 18.8968 76.6576 18.5977 76.3895 18.3399C76.1317 18.0717 75.7913 17.8603 75.3685 17.7056C74.9457 17.5406 74.4352 17.4581 73.837 17.4581C73.4142 17.4581 73.0068 17.52 72.6149 17.6437C72.2333 17.7675 71.893 17.948 71.5939 18.1852C71.2948 18.4224 71.0576 18.7163 70.8823 19.0669C70.707 19.4073 70.6193 19.8043 70.6193 20.2581ZM71.6249 25.3321C71.6249 25.0124 71.6816 24.7236 71.795 24.4658C71.9188 24.208 72.0838 23.9863 72.29 23.8006C72.5066 23.615 72.7541 23.4758 73.0326 23.3829C73.3214 23.2798 73.6256 23.2283 73.9453 23.2283C74.2547 23.2283 74.5435 23.285 74.8116 23.3984C75.09 23.5015 75.3324 23.6459 75.5387 23.8316C75.7449 24.0172 75.9048 24.2389 76.0182 24.4968C76.142 24.7443 76.2039 25.0176 76.2039 25.3167C76.2039 25.626 76.1471 25.9097 76.0337 26.1675C75.9306 26.4253 75.7759 26.6522 75.5696 26.8481C75.3737 27.0338 75.1365 27.1833 74.858 27.2968C74.5899 27.3999 74.2908 27.4515 73.9608 27.4515C73.2801 27.4515 72.718 27.2658 72.2746 26.8945C71.8414 26.513 71.6249 25.9922 71.6249 25.3321ZM80.2517 23.0271C80.2517 22.759 80.2517 22.4651 80.2517 22.1454C80.262 21.8154 80.2878 21.4905 80.329 21.1708C80.3806 20.8408 80.4476 20.5211 80.5301 20.2117C80.623 19.9023 80.7519 19.6341 80.9169 19.4073C81.0922 19.1701 81.3088 18.9793 81.5666 18.8349C81.8244 18.6905 82.139 18.6183 82.5103 18.6183C82.8815 18.6183 83.1961 18.6905 83.4539 18.8349C83.7117 18.9793 83.9232 19.1701 84.0882 19.4073C84.2635 19.6341 84.3924 19.9023 84.4749 20.2117C84.5677 20.5211 84.6348 20.8408 84.676 21.1708C84.7276 21.4905 84.7534 21.8154 84.7534 22.1454C84.7637 22.4651 84.7688 22.759 84.7688 23.0271C84.7688 23.4397 84.7534 23.9038 84.7224 24.4194C84.7018 24.9248 84.6193 25.4043 84.4749 25.8581C84.3408 26.3015 84.1191 26.678 83.8097 26.9874C83.5003 27.2968 83.0672 27.4515 82.5103 27.4515C81.9534 27.4515 81.5202 27.2968 81.2108 26.9874C80.9014 26.678 80.6745 26.3015 80.5301 25.8581C80.3961 25.4043 80.3136 24.9248 80.2826 24.4194C80.262 23.9038 80.2517 23.4397 80.2517 23.0271ZM78.8594 23.0426C78.8594 23.4448 78.8697 23.8625 78.8904 24.2957C78.911 24.7288 78.9626 25.1516 79.0451 25.5642C79.1276 25.9767 79.2462 26.3686 79.4009 26.7399C79.5556 27.1008 79.767 27.4205 80.0351 27.699C80.3033 27.9774 80.6384 28.1992 81.0406 28.3642C81.4532 28.5189 81.943 28.5962 82.5103 28.5962C83.0878 28.5962 83.5777 28.5189 83.9799 28.3642C84.3821 28.1992 84.7173 27.9774 84.9854 27.699C85.2535 27.4205 85.465 27.1008 85.6197 26.7399C85.7743 26.3686 85.8929 25.9767 85.9755 25.5642C86.058 25.1516 86.1095 24.7288 86.1301 24.2957C86.1508 23.8625 86.1611 23.4448 86.1611 23.0426C86.1611 22.6404 86.1508 22.2227 86.1301 21.7896C86.1095 21.3564 86.058 20.9336 85.9755 20.5211C85.8929 20.1085 85.7743 19.7167 85.6197 19.3454C85.465 18.9741 85.2535 18.6493 84.9854 18.3708C84.7173 18.0923 84.3769 17.8706 83.9644 17.7056C83.5622 17.5406 83.0775 17.4581 82.5103 17.4581C81.943 17.4581 81.4532 17.5406 81.0406 17.7056C80.6384 17.8706 80.3033 18.0923 80.0351 18.3708C79.767 18.6493 79.5556 18.9741 79.4009 19.3454C79.2462 19.7167 79.1276 20.1085 79.0451 20.5211C78.9626 20.9336 78.911 21.3564 78.8904 21.7896C78.8697 22.2227 78.8594 22.6404 78.8594 23.0426ZM88.0896 26.7089V28.426H89.8067V26.7089H88.0896ZM91.7918 21.341H93.1067C93.0964 21.0109 93.1273 20.6861 93.1995 20.3664C93.282 20.0364 93.4109 19.7424 93.5863 19.4846C93.7616 19.2268 93.9833 19.0205 94.2514 18.8658C94.5299 18.7008 94.8599 18.6183 95.2415 18.6183C95.5303 18.6183 95.8036 18.6647 96.0614 18.7575C96.3192 18.8504 96.5409 18.9844 96.7266 19.1597C96.9225 19.3351 97.0772 19.5465 97.1907 19.794C97.3041 20.0312 97.3608 20.2993 97.3608 20.5984C97.3608 20.98 97.299 21.3152 97.1752 21.6039C97.0618 21.8927 96.8864 22.1609 96.6492 22.4084C96.4223 22.6559 96.1336 22.9034 95.7829 23.1509C95.4323 23.3881 95.0249 23.6511 94.5608 23.9399C94.1793 24.1667 93.8131 24.4091 93.4625 24.6669C93.1119 24.9248 92.7973 25.2238 92.5189 25.5642C92.2404 25.9045 92.0084 26.3067 91.8227 26.7708C91.6474 27.2246 91.534 27.7763 91.4824 28.426H98.6448V27.2658H93.0139C93.0758 26.9255 93.2047 26.6264 93.4006 26.3686C93.6069 26.1004 93.8492 25.8529 94.1277 25.626C94.4165 25.3992 94.731 25.1877 95.0713 24.9918C95.4117 24.7855 95.752 24.5793 96.0923 24.373C96.4327 24.1564 96.7627 23.9295 97.0824 23.6923C97.4021 23.4551 97.6857 23.1922 97.9332 22.9034C98.1807 22.6043 98.3767 22.2691 98.5211 21.8979C98.6758 21.5266 98.7531 21.0986 98.7531 20.6139C98.7531 20.0982 98.6603 19.6445 98.4747 19.2526C98.2993 18.8607 98.057 18.5358 97.7476 18.278C97.4382 18.0098 97.0721 17.8087 96.6492 17.6747C96.2367 17.5303 95.7933 17.4581 95.3189 17.4581C94.7413 17.4581 94.2257 17.5561 93.7719 17.752C93.3181 17.948 92.9365 18.2213 92.6271 18.5719C92.3281 18.9122 92.1063 19.3196 91.9619 19.794C91.8176 20.2684 91.7608 20.7841 91.7918 21.341ZM103.079 22.1609V23.2747C103.327 23.2437 103.59 23.2283 103.868 23.2283C104.198 23.2283 104.503 23.2747 104.781 23.3675C105.07 23.45 105.317 23.5841 105.524 23.7697C105.73 23.945 105.895 24.1667 106.019 24.4349C106.142 24.6927 106.204 24.9918 106.204 25.3321C106.204 25.6621 106.137 25.9612 106.003 26.2294C105.879 26.4872 105.709 26.7089 105.493 26.8945C105.276 27.0699 105.023 27.2091 104.735 27.3122C104.446 27.405 104.142 27.4515 103.822 27.4515C103.069 27.4515 102.497 27.2297 102.105 26.7863C101.713 26.3325 101.507 25.7498 101.486 25.0382H100.171C100.161 25.6054 100.238 26.1108 100.403 26.5542C100.578 26.9977 100.826 27.3741 101.146 27.6835C101.465 27.9826 101.852 28.2095 102.306 28.3642C102.76 28.5189 103.265 28.5962 103.822 28.5962C104.338 28.5962 104.822 28.5292 105.276 28.3951C105.74 28.2507 106.142 28.0393 106.483 27.7608C106.823 27.4824 107.091 27.1369 107.287 26.7244C107.493 26.3015 107.597 25.8168 107.597 25.2702C107.597 24.6102 107.432 24.0378 107.101 23.5531C106.782 23.0684 106.287 22.7539 105.616 22.6095V22.5785C106.05 22.3826 106.411 22.0938 106.699 21.7122C106.988 21.3306 107.132 20.8923 107.132 20.3973C107.132 19.892 107.045 19.4537 106.869 19.0824C106.704 18.7111 106.472 18.4069 106.173 18.1697C105.874 17.9325 105.518 17.7572 105.106 17.6437C104.704 17.52 104.265 17.4581 103.791 17.4581C103.244 17.4581 102.76 17.5458 102.337 17.7211C101.924 17.8964 101.579 18.1388 101.3 18.4481C101.022 18.7575 100.805 19.1288 100.651 19.562C100.506 19.9951 100.424 20.4747 100.403 21.0006H101.718C101.718 20.6809 101.759 20.3767 101.842 20.0879C101.924 19.7992 102.048 19.5465 102.213 19.3299C102.388 19.1133 102.605 18.9432 102.863 18.8194C103.131 18.6853 103.44 18.6183 103.791 18.6183C104.348 18.6183 104.812 18.7679 105.183 19.0669C105.555 19.3557 105.74 19.794 105.74 20.3818C105.74 20.6706 105.683 20.9284 105.57 21.1553C105.457 21.3822 105.302 21.573 105.106 21.7277C104.92 21.8721 104.699 21.9855 104.441 22.068C104.193 22.1402 103.93 22.1763 103.652 22.1763H103.373C103.322 22.1763 103.27 22.1763 103.219 22.1763C103.177 22.1763 103.131 22.1712 103.079 22.1609ZM113.547 24.6979H109.865L113.516 19.3299H113.547V24.6979ZM114.785 24.6979V17.4581H113.733L108.736 24.5896V25.8581H113.547V28.426H114.785V25.8581H116.27V24.6979H114.785Z" fill="#4C4C66"/>
<path d="M112.052 47.8525V45.6604H111.372V47.8525H109.19V48.5332H111.372V50.7253H112.052V48.5332H114.234V47.8525H112.052ZM116.893 46.6714V47.3921C117.053 47.3721 117.223 47.3621 117.404 47.3621C117.617 47.3621 117.814 47.3921 117.994 47.4522C118.181 47.5055 118.341 47.5923 118.475 47.7124C118.608 47.8259 118.715 47.9693 118.795 48.1428C118.875 48.3097 118.915 48.5032 118.915 48.7234C118.915 48.9369 118.872 49.1305 118.785 49.304C118.705 49.4708 118.595 49.6143 118.455 49.7344C118.315 49.8478 118.151 49.9379 117.964 50.0046C117.777 50.0647 117.58 50.0947 117.374 50.0947C116.886 50.0947 116.516 49.9513 116.263 49.6643C116.009 49.3707 115.875 48.9937 115.862 48.5332H115.011C115.005 48.9002 115.055 49.2272 115.161 49.5142C115.275 49.8011 115.435 50.0447 115.642 50.2449C115.849 50.4384 116.099 50.5852 116.393 50.6853C116.686 50.7854 117.013 50.8354 117.374 50.8354C117.707 50.8354 118.021 50.7921 118.315 50.7053C118.615 50.6119 118.875 50.4751 119.095 50.2949C119.316 50.1147 119.489 49.8912 119.616 49.6243C119.749 49.3507 119.816 49.037 119.816 48.6834C119.816 48.2563 119.709 47.8859 119.496 47.5723C119.289 47.2586 118.969 47.0551 118.535 46.9617V46.9417C118.815 46.8149 119.049 46.628 119.235 46.3811C119.422 46.1342 119.516 45.8506 119.516 45.5303C119.516 45.2033 119.459 44.9197 119.346 44.6795C119.239 44.4392 119.089 44.2424 118.895 44.0889C118.702 43.9354 118.471 43.822 118.204 43.7485C117.944 43.6685 117.661 43.6284 117.354 43.6284C117 43.6284 116.686 43.6852 116.413 43.7986C116.146 43.912 115.922 44.0689 115.742 44.2691C115.562 44.4693 115.422 44.7095 115.322 44.9898C115.228 45.27 115.175 45.5803 115.161 45.9207H116.012C116.012 45.7138 116.039 45.5169 116.092 45.3301C116.146 45.1432 116.226 44.9797 116.333 44.8396C116.446 44.6995 116.586 44.5894 116.753 44.5093C116.927 44.4225 117.127 44.3792 117.354 44.3792C117.714 44.3792 118.014 44.4759 118.254 44.6694C118.495 44.8563 118.615 45.1399 118.615 45.5203C118.615 45.7071 118.578 45.874 118.505 46.0208C118.431 46.1676 118.331 46.291 118.204 46.3911C118.084 46.4845 117.941 46.558 117.774 46.6113C117.614 46.658 117.444 46.6814 117.264 46.6814H117.083C117.05 46.6814 117.017 46.6814 116.983 46.6814C116.957 46.6814 116.927 46.6781 116.893 46.6714ZM121.614 49.0137H120.764C120.817 49.6276 121.04 50.0847 121.434 50.385C121.828 50.6853 122.322 50.8354 122.916 50.8354C123.776 50.8354 124.4 50.5085 124.787 49.8545C125.181 49.1939 125.378 48.2496 125.378 47.0217C125.378 46.3477 125.311 45.7939 125.178 45.3601C125.051 44.9197 124.878 44.5727 124.657 44.3191C124.437 44.0655 124.18 43.8887 123.887 43.7886C123.593 43.6818 123.279 43.6284 122.946 43.6284C122.605 43.6284 122.292 43.6852 122.005 43.7986C121.718 43.912 121.471 44.0722 121.264 44.2791C121.057 44.4793 120.897 44.7228 120.784 45.0098C120.67 45.2901 120.613 45.6004 120.613 45.9407C120.613 46.2877 120.66 46.608 120.754 46.9016C120.854 47.1952 120.997 47.4455 121.184 47.6524C121.377 47.8592 121.614 48.0227 121.895 48.1428C122.175 48.2563 122.495 48.313 122.856 48.313C123.203 48.313 123.523 48.2262 123.817 48.0527C124.11 47.8726 124.337 47.6323 124.497 47.332L124.517 47.3521C124.491 48.2796 124.347 48.9703 124.087 49.4241C123.827 49.8712 123.436 50.0947 122.916 50.0947C122.575 50.0947 122.282 50.0013 122.035 49.8145C121.788 49.6276 121.648 49.3607 121.614 49.0137ZM124.367 46.0007C124.367 46.2076 124.334 46.4078 124.267 46.6013C124.2 46.7882 124.103 46.955 123.977 47.1018C123.85 47.242 123.696 47.3554 123.516 47.4421C123.336 47.5222 123.136 47.5623 122.916 47.5623C122.709 47.5623 122.519 47.5222 122.345 47.4421C122.178 47.3554 122.031 47.242 121.905 47.1018C121.785 46.9617 121.688 46.8015 121.614 46.6213C121.548 46.4412 121.514 46.2543 121.514 46.0608C121.514 45.8406 121.538 45.6304 121.584 45.4302C121.638 45.23 121.718 45.0532 121.825 44.8997C121.938 44.7395 122.082 44.6127 122.255 44.5193C122.435 44.4259 122.652 44.3792 122.906 44.3792C123.146 44.3792 123.356 44.4225 123.536 44.5093C123.716 44.596 123.867 44.7162 123.987 44.8696C124.113 45.0165 124.207 45.1866 124.267 45.3801C124.334 45.5737 124.367 45.7805 124.367 46.0007ZM126.666 49.6143V50.7253H127.777V49.6143H126.666ZM132.765 45.4402H133.616C133.563 44.853 133.362 44.4059 133.015 44.0989C132.668 43.7853 132.201 43.6284 131.614 43.6284C131.107 43.6284 130.686 43.7352 130.353 43.9487C130.019 44.1623 129.752 44.4459 129.552 44.7996C129.352 45.1533 129.208 45.5603 129.122 46.0208C129.041 46.4745 129.001 46.945 129.001 47.4321C129.001 47.8058 129.028 48.1929 129.082 48.5933C129.142 48.9937 129.258 49.3607 129.432 49.6943C129.605 50.028 129.852 50.3016 130.173 50.5151C130.493 50.7287 130.917 50.8354 131.444 50.8354C131.891 50.8354 132.265 50.762 132.565 50.6152C132.872 50.4618 133.115 50.2716 133.296 50.0447C133.482 49.8111 133.616 49.5542 133.696 49.2739C133.776 48.9937 133.816 48.7234 133.816 48.4631C133.816 48.1362 133.766 47.8325 133.666 47.5523C133.566 47.272 133.422 47.0284 133.236 46.8215C133.055 46.6147 132.828 46.4545 132.555 46.3411C132.288 46.221 131.984 46.1609 131.644 46.1609C131.257 46.1609 130.913 46.2343 130.613 46.3811C130.319 46.5279 130.072 46.7648 129.872 47.0918L129.852 47.0718C129.859 46.7982 129.886 46.5046 129.932 46.1909C129.979 45.8773 130.062 45.587 130.183 45.3201C130.309 45.0465 130.483 44.8229 130.703 44.6494C130.923 44.4693 131.214 44.3792 131.574 44.3792C131.914 44.3792 132.188 44.4759 132.395 44.6694C132.602 44.863 132.725 45.1199 132.765 45.4402ZM131.484 46.9116C131.724 46.9116 131.934 46.955 132.114 47.0418C132.295 47.1285 132.445 47.2453 132.565 47.3921C132.685 47.5322 132.772 47.7024 132.825 47.9026C132.885 48.0961 132.915 48.303 132.915 48.5232C132.915 48.7301 132.882 48.9303 132.815 49.1238C132.755 49.3106 132.665 49.4775 132.545 49.6243C132.425 49.7711 132.275 49.8879 132.094 49.9746C131.921 50.0547 131.717 50.0947 131.484 50.0947C131.25 50.0947 131.04 50.0547 130.853 49.9746C130.673 49.8879 130.52 49.7744 130.393 49.6343C130.273 49.4941 130.179 49.3273 130.113 49.1338C130.046 48.9403 130.012 48.7334 130.012 48.5132C130.012 48.293 130.042 48.0861 130.102 47.8926C130.169 47.6924 130.266 47.5222 130.393 47.3821C130.52 47.2353 130.673 47.1218 130.853 47.0418C131.033 46.955 131.244 46.9116 131.484 46.9116ZM135.524 49.0137H134.674C134.727 49.6276 134.951 50.0847 135.344 50.385C135.738 50.6853 136.232 50.8354 136.826 50.8354C137.687 50.8354 138.31 50.5085 138.698 49.8545C139.091 49.1939 139.288 48.2496 139.288 47.0217C139.288 46.3477 139.221 45.7939 139.088 45.3601C138.961 44.9197 138.788 44.5727 138.567 44.3191C138.347 44.0655 138.09 43.8887 137.797 43.7886C137.503 43.6818 137.189 43.6284 136.856 43.6284C136.515 43.6284 136.202 43.6852 135.915 43.7986C135.628 43.912 135.381 44.0722 135.174 44.2791C134.967 44.4793 134.807 44.7228 134.694 45.0098C134.58 45.2901 134.523 45.6004 134.523 45.9407C134.523 46.2877 134.57 46.608 134.664 46.9016C134.764 47.1952 134.907 47.4455 135.094 47.6524C135.288 47.8592 135.524 48.0227 135.805 48.1428C136.085 48.2563 136.405 48.313 136.766 48.313C137.113 48.313 137.433 48.2262 137.727 48.0527C138.02 47.8726 138.247 47.6323 138.407 47.332L138.427 47.3521C138.401 48.2796 138.257 48.9703 137.997 49.4241C137.737 49.8712 137.346 50.0947 136.826 50.0947C136.485 50.0947 136.192 50.0013 135.945 49.8145C135.698 49.6276 135.558 49.3607 135.524 49.0137ZM138.277 46.0007C138.277 46.2076 138.244 46.4078 138.177 46.6013C138.11 46.7882 138.014 46.955 137.887 47.1018C137.76 47.242 137.606 47.3554 137.426 47.4421C137.246 47.5222 137.046 47.5623 136.826 47.5623C136.619 47.5623 136.429 47.5222 136.255 47.4421C136.088 47.3554 135.941 47.242 135.815 47.1018C135.695 46.9617 135.598 46.8015 135.524 46.6213C135.458 46.4412 135.424 46.2543 135.424 46.0608C135.424 45.8406 135.448 45.6304 135.494 45.4302C135.548 45.23 135.628 45.0532 135.735 44.8997C135.848 44.7395 135.992 44.6127 136.165 44.5193C136.345 44.4259 136.562 44.3792 136.816 44.3792C137.056 44.3792 137.266 44.4225 137.446 44.5093C137.626 44.596 137.777 44.7162 137.897 44.8696C138.024 45.0165 138.117 45.1866 138.177 45.3801C138.244 45.5737 138.277 45.7805 138.277 46.0007ZM141.417 45.6404C141.417 45.4869 141.427 45.3268 141.447 45.1599C141.467 44.9864 141.507 44.8296 141.567 44.6895C141.634 44.5427 141.724 44.4225 141.837 44.3291C141.951 44.229 142.101 44.179 142.288 44.179C142.481 44.179 142.631 44.229 142.738 44.3291C142.852 44.4225 142.938 44.5427 142.998 44.6895C143.058 44.8296 143.095 44.9864 143.108 45.1599C143.128 45.3268 143.138 45.4836 143.138 45.6304C143.138 45.7839 143.128 45.9474 143.108 46.1209C143.088 46.2944 143.045 46.4545 142.978 46.6013C142.918 46.7415 142.832 46.8582 142.718 46.9517C142.605 47.0451 142.451 47.0918 142.258 47.0918C142.071 47.0918 141.921 47.0451 141.807 46.9517C141.7 46.8516 141.617 46.7315 141.557 46.5913C141.497 46.4445 141.457 46.2877 141.437 46.1209C141.423 45.9474 141.417 45.7872 141.417 45.6404ZM140.666 45.6604C140.666 45.934 140.693 46.1909 140.746 46.4312C140.806 46.6714 140.9 46.8816 141.026 47.0618C141.153 47.242 141.32 47.3854 141.527 47.4922C141.734 47.5923 141.987 47.6423 142.288 47.6423C142.581 47.6423 142.828 47.5856 143.028 47.4722C143.229 47.3587 143.392 47.2119 143.519 47.0317C143.652 46.8449 143.746 46.6314 143.799 46.3911C143.859 46.1442 143.889 45.8906 143.889 45.6304C143.889 45.3568 143.863 45.0999 143.809 44.8596C143.762 44.6127 143.676 44.3992 143.549 44.219C143.429 44.0388 143.265 43.8954 143.058 43.7886C142.858 43.6818 142.601 43.6284 142.288 43.6284C141.981 43.6284 141.724 43.6852 141.517 43.7986C141.31 43.9054 141.143 44.0522 141.016 44.239C140.89 44.4259 140.8 44.6428 140.746 44.8897C140.693 45.1299 140.666 45.3868 140.666 45.6604ZM146.362 48.8435C146.362 48.69 146.372 48.5299 146.392 48.363C146.412 48.1895 146.452 48.0327 146.512 47.8926C146.578 47.7458 146.669 47.6257 146.782 47.5322C146.895 47.4321 147.046 47.3821 147.232 47.3821C147.426 47.3821 147.576 47.4321 147.683 47.5322C147.796 47.6257 147.883 47.7458 147.943 47.8926C148.003 48.0327 148.04 48.1895 148.053 48.363C148.073 48.5299 148.083 48.6867 148.083 48.8335C148.083 48.987 148.073 49.1505 148.053 49.324C148.033 49.4975 147.99 49.6576 147.923 49.8044C147.863 49.9446 147.776 50.0614 147.663 50.1548C147.549 50.2482 147.396 50.2949 147.202 50.2949C147.016 50.2949 146.865 50.2482 146.752 50.1548C146.645 50.0547 146.562 49.9346 146.502 49.7944C146.442 49.6476 146.402 49.4908 146.382 49.324C146.368 49.1505 146.362 48.9903 146.362 48.8435ZM145.611 48.8635C145.611 49.1371 145.638 49.394 145.691 49.6343C145.751 49.8745 145.844 50.0847 145.971 50.2649C146.098 50.4384 146.265 50.5785 146.472 50.6853C146.679 50.7854 146.932 50.8354 147.232 50.8354C147.526 50.8354 147.773 50.7821 147.973 50.6753C148.173 50.5619 148.337 50.415 148.464 50.2349C148.597 50.048 148.691 49.8345 148.744 49.5942C148.804 49.3473 148.834 49.0938 148.834 48.8335C148.834 48.5599 148.807 48.303 148.754 48.0628C148.707 47.8158 148.62 47.6023 148.494 47.4221C148.374 47.242 148.21 47.0985 148.003 46.9917C147.803 46.8849 147.546 46.8316 147.232 46.8316C146.925 46.8316 146.669 46.8883 146.462 47.0017C146.255 47.1085 146.088 47.2553 145.961 47.4421C145.834 47.629 145.744 47.8459 145.691 48.0928C145.638 48.333 145.611 48.5899 145.611 48.8635ZM147.012 43.4983L141.627 50.9355H142.488L147.863 43.4983H147.012Z" fill="#2BB596"/>
<path d="M101.071 46.7367L100.244 47.564C99.9389 47.8686 99.4451 47.8686 99.1405 47.564C98.8359 47.2594 98.8359 46.7656 99.1405 46.461L99.9678 45.6337L97.7894 43.4553H103.249V48.9151L101.071 46.7367Z" fill="#2BB596"/>
<rect x="0.876833" y="1.14134" width="171.986" height="66.4283" rx="8.64478" stroke="#E2E2E8" stroke-width="0.909977"/>
<defs>
<filter id="filter0_f" x="60.7521" y="21.4309" width="48.5789" height="42.9883" filterUnits="userSpaceOnUse" color-interpolation-filters="sRGB">
<feFlood flood-opacity="0" result="BackgroundImageFix"/>
<feBlend mode="normal" in="SourceGraphic" in2="BackgroundImageFix" result="shape"/>
<feGaussianBlur stdDeviation="8.58849" result="effect1_foregroundBlur"/>
</filter>
<linearGradient id="paint0_linear" x1="85.8081" y1="49.5111" x2="90.3341" y2="42.7727" gradientUnits="userSpaceOnUse">
<stop stop-color="#62CBFF" stop-opacity="0.01"/>
<stop offset="1" stop-color="#339CFE"/>
</linearGradient>
<linearGradient id="paint1_linear" x1="77.5549" y1="40.0152" x2="71.3718" y2="55.7352" gradientUnits="userSpaceOnUse">
<stop stop-color="#309AFF"/>
<stop offset="1" stop-color="#52AD97" stop-opacity="0.01"/>
</linearGradient>
</defs>
</svg>
