<svg width="29" height="29" viewBox="0 0 29 29" fill="none" xmlns="http://www.w3.org/2000/svg">
<path fill-rule="evenodd" clip-rule="evenodd" d="M5.814 7.76891C5.814 6.76378 6.62882 5.94896 7.63395 5.94896C8.63908 5.94896 9.4539 6.76378 9.4539 7.76891C9.4539 8.77405 8.63908 9.58887 7.63395 9.58887C6.62882 9.58887 5.814 8.77405 5.814 7.76891ZM5.81405 15.0487C5.81405 14.0436 6.62887 13.2288 7.634 13.2288C8.63914 13.2288 9.45396 14.0436 9.45396 15.0487C9.45396 16.0539 8.63914 16.8687 7.634 16.8687C6.62887 16.8687 5.81405 16.0539 5.81405 15.0487ZM14.9139 5.94898C13.9087 5.94898 13.0939 6.7638 13.0939 7.76893C13.0939 8.77406 13.9087 9.58889 14.9139 9.58889C15.919 9.58889 16.7338 8.77406 16.7338 7.76893C16.7338 6.7638 15.919 5.94898 14.9139 5.94898ZM13.0939 15.0487C13.0939 14.0436 13.9087 13.2288 14.9139 13.2288C15.919 13.2288 16.7338 14.0436 16.7338 15.0487C16.7338 16.0539 15.919 16.8687 14.9139 16.8687C13.9087 16.8687 13.0939 16.0539 13.0939 15.0487ZM22.1937 5.94898C21.1885 5.94898 20.3737 6.7638 20.3737 7.76893C20.3737 8.77406 21.1885 9.58889 22.1937 9.58889C23.1988 9.58889 24.0136 8.77406 24.0136 7.76893C24.0136 6.7638 23.1988 5.94898 22.1937 5.94898ZM20.3737 15.0487C20.3737 14.0436 21.1885 13.2288 22.1937 13.2288C23.1988 13.2288 24.0136 14.0436 24.0136 15.0487C24.0136 16.0539 23.1988 16.8687 22.1937 16.8687C21.1885 16.8687 20.3737 16.0539 20.3737 15.0487ZM7.634 20.5086C6.62887 20.5086 5.81405 21.3234 5.81405 22.3286C5.81405 23.3337 6.62887 24.1485 7.634 24.1485C8.63914 24.1485 9.45396 23.3337 9.45396 22.3286C9.45396 21.3234 8.63914 20.5086 7.634 20.5086ZM13.0939 22.3286C13.0939 21.3234 13.9087 20.5086 14.9139 20.5086C15.919 20.5086 16.7338 21.3234 16.7338 22.3286C16.7338 23.3337 15.919 24.1485 14.9139 24.1485C13.9087 24.1485 13.0939 23.3337 13.0939 22.3286ZM22.1937 20.5086C21.1885 20.5086 20.3737 21.3234 20.3737 22.3286C20.3737 23.3337 21.1885 24.1485 22.1937 24.1485C23.1988 24.1485 24.0136 23.3337 24.0136 22.3286C24.0136 21.3234 23.1988 20.5086 22.1937 20.5086Z" fill="#6F6C99"/>
</svg>
